<?xml version="1.0" standalone="no"?>
<!DOCTYPE svg PUBLIC "-//W3C//DTD SVG 1.1//EN" "http://www.w3.org/Graphics/SVG/1.1/DTD/svg11.dtd" >
<svg xmlns="http://www.w3.org/2000/svg" xmlns:xlink="http://www.w3.org/1999/xlink" version="1.1">
<metadata>
Created by FontForge 20170731 at Sat Aug 19 17:57:47 2023
 By Aleksey,,,
Copyright (c)2014 Commercial Type.
</metadata>
<defs>
<font id="Druk-Medium" horiz-adv-x="632" >
  <font-face 
    font-family="Druk Medium Trial"
    font-weight="500"
    font-stretch="normal"
    units-per-em="2048"
    panose-1="0 0 0 0 0 0 0 0 0 0"
    ascent="1663"
    descent="-385"
    x-height="1102"
    cap-height="1524"
    bbox="-106 -399 1081 1542"
    underline-thickness="172"
    underline-position="-212"
    unicode-range="U+0020-201D"
  />
<missing-glyph horiz-adv-x="1024" 
 />
    <glyph glyph-name=".notdef" horiz-adv-x="1024" 
 />
    <glyph glyph-name=".null" horiz-adv-x="0" 
 />
    <glyph glyph-name="nonmarkingreturn" horiz-adv-x="682" 
 />
    <glyph glyph-name="space" unicode=" " horiz-adv-x="208" 
 />
    <glyph glyph-name="exclam" unicode="!" horiz-adv-x="303" 
d="M256 262v-262h-213v262h213zM25 1524h254l-91 -1211h-75z" />
    <glyph glyph-name="quotedbl" unicode="&#x22;" horiz-adv-x="442" 
d="M199 1524v-359h-168v359h168zM412 1524v-359h-168v359h168z" />
    <glyph glyph-name="quotesingle" unicode="'" horiz-adv-x="233" 
d="M203 1524v-359h-172v359h172z" />
    <glyph glyph-name="comma" unicode="," horiz-adv-x="272" 
d="M188 -184h-114q39 113 43 184h-88v262h215v-192q0 -134 -56 -254z" />
    <glyph glyph-name="hyphen" unicode="-" horiz-adv-x="346" 
d="M29 711h288v-201h-288v201z" />
    <glyph glyph-name="period" unicode="." horiz-adv-x="272" 
d="M244 262v-262h-215v262h215z" />
    <glyph glyph-name="zero" unicode="0" horiz-adv-x="690" 
d="M651 1192v-893q0 -141 -74.5 -229t-209.5 -88h-52q-135 0 -205.5 80.5t-70.5 236.5v889q0 173 68 261.5t221 88.5h43q79 0 135 -24.5t87 -72t44.5 -108t13.5 -141.5zM416 315v885q0 60 -16 86.5t-56 26.5t-55 -26.5t-15 -86.5v-885q0 -49 14 -75.5t54 -26.5
q41 0 57.5 26.5t16.5 75.5z" />
    <glyph glyph-name="one" unicode="1" horiz-adv-x="450" 
d="M168 1167h-156v189q102 6 144 41t59 127h186v-1524h-233v1167z" />
    <glyph glyph-name="two" unicode="2" horiz-adv-x="667" 
d="M330 1317q-32 0 -45 -18.5t-13 -61.5v-260h-221v278q0 58 12.5 106t40.5 89t78.5 64.5t120.5 23.5h47q283 0 283 -283v-75q0 -145 -22.5 -225.5t-112.5 -215.5q-21 -31 -73.5 -104t-74.5 -105q-94 -134 -119.5 -196t-25.5 -117h205v293h233v-510h-631v115q0 150 34 256
t144 299l134 235q43 78 54 123.5t11 110.5v98q0 80 -59 80z" />
    <glyph glyph-name="three" unicode="3" horiz-adv-x="661" 
d="M260 1065h-215v192q0 50 11.5 96t37.5 89.5t75 69.5t116 26h57q137 0 204.5 -76.5t67.5 -208.5v-174q0 -111 -24.5 -162.5t-71.5 -76.5q56 -22 83.5 -63t27.5 -120v-374q0 -138 -73.5 -219.5t-195.5 -81.5h-63q-140 0 -204 71.5t-64 190.5v309h229v-250q0 -90 68 -90
q63 0 63 90v318q0 43 -11.5 60t-49.5 17h-125v238h108q42 0 54 17t12 69v213q0 47 -13.5 65.5t-46.5 18.5q-31 0 -44 -18.5t-13 -63.5v-172z" />
    <glyph glyph-name="four" unicode="4" horiz-adv-x="700" 
d="M326 578v405q-57 -182 -140 -405h140zM10 559q71 187 182 500.5t160 470.5h201v-952h141v-209h-141v-369h-227v369h-316v190z" />
    <glyph glyph-name="five" unicode="5" horiz-adv-x="665" 
d="M276 682h-227v842h569v-230h-342v-342q32 66 80 108t107 42h8q84 0 123 -52.5t39 -127.5v-654q0 -56 -16 -105.5t-48 -91t-87.5 -65.5t-127.5 -24h-43q-67 0 -118.5 17t-81.5 43.5t-49.5 62.5t-26 69.5t-6.5 69.5v313h237v-268q0 -88 62 -88q57 0 57 88v485q0 29 -1.5 44
t-14 30.5t-37.5 15.5q-24 0 -37 -14.5t-16 -32t-3 -43.5v-92z" />
    <glyph glyph-name="six" unicode="6" horiz-adv-x="679" 
d="M344 201q68 0 68 96v371q0 94 -68 94t-68 -90v-375q0 -96 68 -96zM473 973h8q45 0 79.5 -17t52.5 -44.5t27 -57.5t9 -61v-506q0 -134 -69.5 -219.5t-212.5 -85.5h-43q-145 0 -215 82.5t-70 211.5v963q0 145 64 222t206 77h41q137 0 204 -65t67 -175v-225h-236v174
q0 74 -55 74q-56 0 -56 -74v-411q91 137 199 137z" />
    <glyph glyph-name="seven" unicode="7" horiz-adv-x="618" 
d="M27 1524h573v-224l-84 -485q-34 -199 -50.5 -374t-16.5 -269v-172h-281v150q0 190 111 561q62 210 95.5 342t40.5 178.5t7 83.5h-176v-242h-219v451z" />
    <glyph glyph-name="eight" unicode="8" horiz-adv-x="665" 
d="M395 281v323q0 44 -14.5 66t-48.5 22q-33 0 -47.5 -21t-14.5 -67v-323q0 -76 64 -76q31 0 46 21t15 55zM391 1004v245q0 40 -11.5 62t-47.5 22t-47 -22t-11 -62v-243q0 -35 14.5 -56.5t45.5 -21.5q57 0 57 76zM621 1270v-230q0 -128 -99 -196q57 -33 86 -82t29 -131v-367
q0 -123 -70.5 -202.5t-214.5 -79.5h-43q-143 0 -211.5 79t-68.5 207v363q0 139 106 213q-41 34 -66.5 78.5t-25.5 117.5v238q0 50 13 94t41.5 82.5t82 61t127.5 22.5h41q137 0 205 -72.5t68 -195.5z" />
    <glyph glyph-name="nine" unicode="9" horiz-adv-x="679" 
d="M209 547h-6q-78 0 -125 66t-47 147v491q0 131 66.5 209t215.5 78h47q281 0 281 -287v-1003q0 -121 -67 -193.5t-199 -72.5h-51q-142 0 -204.5 69t-62.5 195v200h240v-172q0 -77 57 -77q52 0 52 77v408q-96 -135 -197 -135zM336 1319q-68 0 -68 -94v-371q0 -96 68 -96
q70 0 70 92v375q0 94 -70 94z" />
    <glyph glyph-name="question" unicode="?" horiz-adv-x="616" 
d="M371 313h-187v246q0 98 12.5 147t59.5 128l59 100q31 52 39 90t8 109v110q0 44 -13 62t-46 18t-44 -17.5t-11 -62.5v-246h-221v246q0 69 10.5 119t37 93t78 65t128.5 22h45q151 0 211.5 -71.5t60.5 -213.5v-151q0 -78 -20 -138.5t-72 -136.5l-68 -94q-44 -64 -55.5 -108
t-11.5 -137v-179zM385 262v-262h-213v262h213z" />
    <glyph glyph-name="A" unicode="A" horiz-adv-x="647" 
d="M430 0l-31 287h-170l-28 -287h-207l186 1524h275l198 -1524h-223zM313 1077l-59 -563h121z" />
    <glyph glyph-name="B" unicode="B" horiz-adv-x="698" 
d="M43 0v1524h365q136 0 189.5 -63.5t53.5 -184.5v-234q0 -88 -32 -140t-82 -71q133 -44 133 -223v-329q0 -128 -60.5 -203.5t-185.5 -75.5h-381zM344 694h-70v-479h70q53 0 71.5 24t18.5 78v279q0 51 -18.5 74.5t-71.5 23.5zM344 1317h-70v-395h70q80 0 80 106v193
q0 49 -17.5 72.5t-62.5 23.5z" />
    <glyph glyph-name="C" unicode="C" horiz-adv-x="679" 
d="M422 309v355h227v-353q0 -329 -276 -329h-51q-67 0 -118.5 19t-82.5 49.5t-50.5 73.5t-26.5 86t-7 93v930q0 62 14 114t45 96.5t86.5 69.5t130.5 25h54q73 0 126.5 -19.5t83 -48.5t46.5 -73.5t21.5 -84t4.5 -91.5v-273h-227v269q0 51 -18 75.5t-60 24.5
q-41 0 -56.5 -23.5t-15.5 -76.5v-906q0 -104 74 -104q76 0 76 102z" />
    <glyph glyph-name="D" unicode="D" horiz-adv-x="696" 
d="M43 0v1524h354q142 0 201 -74.5t59 -218.5v-928q0 -146 -61.5 -224.5t-198.5 -78.5h-354zM274 1317v-1096h56q51 0 70.5 27.5t19.5 91.5v858q0 65 -18.5 92t-61.5 27h-66z" />
    <glyph glyph-name="E" unicode="E" horiz-adv-x="598" 
d="M43 1524h526v-221h-295v-400h232v-231h-232v-441h308v-231h-539v1524z" />
    <glyph glyph-name="F" unicode="F" horiz-adv-x="585" 
d="M43 0v1524h526v-221h-295v-402h234v-231h-234v-670h-231z" />
    <glyph glyph-name="G" unicode="G" horiz-adv-x="690" 
d="M272 -20h-14q-100 0 -160.5 78.5t-60.5 199.5v952q0 53 8.5 99.5t29 89.5t52.5 73t81.5 48t113.5 18h45q72 0 123.5 -19t81 -48.5t46 -77t21 -92t4.5 -105.5v-156h-225v172q0 54 -16.5 79.5t-57.5 25.5q-72 0 -72 -105v-890q0 -53 20 -81t56 -28q43 0 64.5 26.5
t21.5 71.5v381h-104v234h323v-926h-131q-21 84 -39 150q-7 -21 -24 -48t-43 -55.5t-64.5 -47.5t-79.5 -19z" />
    <glyph glyph-name="H" unicode="H" horiz-adv-x="706" 
d="M274 670v-670h-231v1524h231v-611h158v611h232v-1524h-232v670h-158z" />
    <glyph glyph-name="I" unicode="I" horiz-adv-x="317" 
d="M274 1524v-1524h-231v1524h231z" />
    <glyph glyph-name="J" unicode="J" horiz-adv-x="645" 
d="M27 672h227v-375q0 -42 12 -63t43 -21h8q54 0 54 84v1227h235v-1245q0 -145 -69 -218t-193 -73h-63q-121 0 -187.5 63.5t-66.5 212.5v408z" />
    <glyph glyph-name="K" unicode="K" horiz-adv-x="692" 
d="M274 662v-662h-231v1524h231v-611l183 611h225l-215 -709l238 -815h-238z" />
    <glyph glyph-name="L" unicode="L" horiz-adv-x="573" 
d="M43 1524h231v-1288h283v-236h-514v1524z" />
    <glyph glyph-name="M" unicode="M" horiz-adv-x="882" 
d="M43 0v1524h297l111 -805l112 805h277v-1524h-217v985l-140 -985h-92l-141 985v-985h-207z" />
    <glyph glyph-name="N" unicode="N" horiz-adv-x="704" 
d="M43 1524h209l199 -817v817h211v-1524h-189l-221 877v-877h-209v1524z" />
    <glyph glyph-name="O" unicode="O" horiz-adv-x="706" 
d="M670 1190v-850q0 -171 -68 -264.5t-227 -93.5h-39q-299 0 -299 358v848q0 350 297 350h39q160 0 228.5 -90t68.5 -258zM434 324v876q0 117 -80 117q-43 0 -62.5 -28.5t-19.5 -88.5v-876q0 -117 84 -117q78 0 78 117z" />
    <glyph glyph-name="P" unicode="P" horiz-adv-x="673" 
d="M410 633h-136v-633h-231v1524h367q124 0 180.5 -58.5t56.5 -193.5v-361q0 -136 -59.5 -207t-177.5 -71zM274 1317v-465h60q48 0 64 28.5t16 82.5v249q0 51 -16.5 78t-63.5 27h-60z" />
    <glyph glyph-name="Q" unicode="Q" horiz-adv-x="706" 
d="M670 1190v-850q0 -148 -50.5 -238t-166.5 -112l106 -307h-276v303q-246 27 -246 354v848q0 350 297 350h39q160 0 228.5 -90t68.5 -258zM434 324v876q0 117 -80 117q-43 0 -62.5 -28.5t-19.5 -88.5v-876q0 -117 84 -117q78 0 78 117z" />
    <glyph glyph-name="R" unicode="R" horiz-adv-x="686" 
d="M274 1317v-420h62q45 0 64.5 27.5t19.5 81.5v213q0 53 -17 75.5t-67 22.5h-62zM274 680v-680h-231v1524h375q118 0 174.5 -55.5t56.5 -180.5v-270q0 -85 -30 -131t-70 -64q100 -45 100 -166v-534q0 -60 23 -113v-10h-230q-22 35 -22 125v459q0 54 -16.5 75t-69.5 21h-60z
" />
    <glyph glyph-name="S" unicode="S" horiz-adv-x="673" 
d="M322 1538h43q141 0 202.5 -63.5t61.5 -200.5v-250h-223v219q0 43 -14 66.5t-52 23.5q-40 0 -54 -24.5t-14 -81.5v-29q0 -66 18.5 -112.5t76.5 -120.5l147 -191q80 -104 108.5 -181.5t28.5 -203.5v-49q0 -171 -75 -263.5t-224 -92.5h-45q-138 0 -210 73.5t-72 214.5v306
h229v-267q0 -106 76 -106q41 0 58.5 30t17.5 101v35q0 84 -16.5 130t-78.5 126l-147 188q-72 93 -99.5 177t-27.5 200v49q0 297 285 297z" />
    <glyph glyph-name="T" unicode="T" horiz-adv-x="647" 
d="M14 1524h619v-221h-195v-1303h-229v1303h-195v221z" />
    <glyph glyph-name="U" unicode="U" horiz-adv-x="698" 
d="M39 332v1192h235v-1207q0 -108 74 -108q76 0 76 108v1207h235v-1192q0 -350 -290 -350h-41q-289 0 -289 350z" />
    <glyph glyph-name="V" unicode="V" horiz-adv-x="661" 
d="M190 0l-192 1524h235l105 -1049l106 1049h220l-193 -1524h-281z" />
    <glyph glyph-name="W" unicode="W" horiz-adv-x="1079" 
d="M438 1524h215l105 -987l106 987h217l-194 -1524h-248l-96 887l-99 -887h-256l-190 1524h233l105 -985z" />
    <glyph glyph-name="X" unicode="X" horiz-adv-x="692" 
d="M195 815l-172 709h235l98 -482l95 482h225l-174 -709l196 -815h-239l-115 551l-117 -551h-233z" />
    <glyph glyph-name="Y" unicode="Y" horiz-adv-x="618" 
d="M631 1524l-203 -891v-633h-231v635l-209 889h225l106 -570l103 570h209z" />
    <glyph glyph-name="Z" unicode="Z" horiz-adv-x="616" 
d="M33 1524h555v-201l-334 -1100h350v-223h-592v207l330 1100h-309v217z" />
    <glyph glyph-name="a" unicode="a" horiz-adv-x="626" 
d="M27 166v258q0 83 23 134t81 87q22 14 61 34t81 40t49 24q17 9 21.5 17.5t4.5 30.5v69q0 41 -11.5 56.5t-41.5 15.5h-4q-31 0 -43 -16t-12 -54v-117h-197v156q0 209 231 209h41q76 0 127 -17t76.5 -49t35 -67.5t9.5 -83.5v-655q0 -21 7 -28t28 -7h39v-203h-209
q-36 0 -54 29t-18 96q-24 -49 -71 -90t-109 -41h-6q-62 0 -100.5 51.5t-38.5 120.5zM348 272v285q-52 -29 -78 -55q-28 -28 -28 -88v-152q0 -72 51 -72q55 0 55 82z" />
    <glyph glyph-name="b" unicode="b" horiz-adv-x="630" 
d="M37 1524h219v-545q78 129 182 129h6q72 0 113 -53t41 -135v-684q0 -104 -53.5 -174t-145.5 -70h-4q-38 0 -72.5 16.5t-57.5 43t-38 50t-24 45.5q-23 -83 -27 -147h-139v1524zM256 819v-540q0 -39 16 -61.5t45 -22.5q58 0 58 81v543q0 84 -60 84q-59 0 -59 -84z" />
    <glyph glyph-name="c" unicode="c" horiz-adv-x="600" 
d="M362 494h211v-248q0 -50 -13.5 -95t-41.5 -84t-77.5 -62t-114.5 -23h-41q-126 0 -190 75t-64 191v600q0 130 65.5 200t196.5 70h39q241 0 241 -239v-197h-211v149q0 49 -10 71t-45 22q-34 0 -44.5 -22t-10.5 -68v-564q0 -84 53 -84q57 0 57 82v226z" />
    <glyph glyph-name="d" unicode="d" horiz-adv-x="628" 
d="M373 1524h219v-1524h-219v125q-16 -46 -61 -90.5t-109 -44.5h-2q-74 0 -120 64.5t-46 168.5v672q0 87 39.5 150t118.5 63h4q34 0 64 -12.5t53 -36t33.5 -37.5t25.5 -37v539zM373 291v522q0 98 -62 98q-57 0 -57 -88v-544q0 -89 57 -89q62 0 62 101z" />
    <glyph glyph-name="e" unicode="e" horiz-adv-x="595" 
d="M322 1116q127 0 186 -69t59 -205v-318h-325v-254q0 -82 59 -82q27 0 41 21.5t14 58.5v183h211v-193q0 -142 -67 -210t-189 -68h-39q-112 0 -176.5 69.5t-64.5 206.5v596q0 120 61.5 192t188.5 72h41zM242 844v-139h120v139q0 43 -12 65.5t-47 22.5q-38 0 -49.5 -22
t-11.5 -66z" />
    <glyph glyph-name="f" unicode="f" horiz-adv-x="516" 
d="M502 1524v-203h-99q-27 0 -36 -12t-9 -41v-166h144v-209h-144v-893h-219v893h-131v209h131v280q0 56 36 99t120 43h207z" />
    <glyph glyph-name="g" unicode="g" horiz-adv-x="630" 
d="M375 -150v281q-66 -141 -180 -141q-66 0 -113 57.5t-47 147.5v659q0 121 41.5 187.5t120.5 66.5q65 0 106.5 -35t75.5 -98v127h215v-1280q0 -30 -3.5 -54.5t-19 -57t-41.5 -55t-76 -38.5t-118 -16h-49q-137 0 -190.5 51.5t-53.5 136.5v160h211v-99q0 -32 12.5 -47.5
t42.5 -15.5h8q32 0 45 15.5t13 47.5zM375 276v558q0 79 -62 79q-57 0 -57 -79v-560q0 -81 59 -81q29 0 44.5 22t15.5 61z" />
    <glyph glyph-name="h" unicode="h" 
d="M37 0v1524h219v-547q77 131 182 131h11q42 0 72 -16t45.5 -43t22.5 -54.5t7 -56.5v-938h-221v825q0 82 -58 82q-33 0 -47 -22t-14 -68v-817h-219z" />
    <glyph glyph-name="i" unicode="i" horiz-adv-x="292" 
d="M256 1102v-1102h-219v1102h219zM256 1397v-236h-219v236h219z" />
    <glyph glyph-name="j" unicode="j" horiz-adv-x="294" 
d="M258 1397v-236h-219v236h219zM-106 -176h102q23 0 33 11.5t10 37.5v1229h219v-1327q0 -160 -141 -160h-223v209z" />
    <glyph glyph-name="k" unicode="k" horiz-adv-x="643" 
d="M256 700l170 402h219l-207 -471l221 -631h-227l-176 510v-510h-219v1524h219v-824z" />
    <glyph glyph-name="l" unicode="l" horiz-adv-x="292" 
d="M256 1524v-1524h-219v1524h219z" />
    <glyph glyph-name="m" unicode="m" horiz-adv-x="956" 
d="M37 0v1102h215v-125q82 131 180 131h8q60 0 96 -36.5t48 -92.5q80 129 186 129h10q70 0 105 -44t35 -122v-942h-220v817q0 46 -11 68t-44 22q-30 0 -42.5 -18t-14.5 -55v-834h-219v817q0 46 -12 68t-46 22q-32 0 -43.5 -21.5t-11.5 -68.5v-817h-219z" />
    <glyph glyph-name="n" unicode="n" 
d="M37 0v1102h215v-129q29 54 78 94.5t108 40.5h11q76 0 111.5 -52.5t35.5 -117.5v-938h-221v825q0 82 -58 82q-33 0 -47 -22t-14 -68v-817h-219z" />
    <glyph glyph-name="o" unicode="o" horiz-adv-x="626" 
d="M31 266v568q0 136 68.5 210t193.5 74h41q123 0 192.5 -72t69.5 -204v-576q0 -117 -70 -200.5t-192 -83.5h-41q-133 0 -197.5 81t-64.5 203zM252 831v-555q0 -86 61 -86q31 0 46.5 23.5t15.5 62.5v555q0 84 -62 84q-61 0 -61 -84z" />
    <glyph glyph-name="p" unicode="p" 
d="M37 1102h219v-119q78 125 178 125h2q80 0 121 -57.5t41 -149.5v-692q0 -103 -48.5 -160t-119.5 -57h-4q-37 0 -72 18.5t-54.5 37.5t-43.5 48v-481h-219v1487zM256 834v-572q0 -41 17.5 -62.5t43.5 -21.5q58 0 58 80v576q0 79 -58 79q-29 0 -45 -21t-16 -58z" />
    <glyph glyph-name="q" unicode="q" 
d="M463 1102h133v-1487h-219v510q-18 -43 -65 -87t-111 -44h-4q-75 0 -118.5 69t-43.5 170v625q0 65 17 119t60 92.5t107 38.5h4q73 0 121.5 -48.5t85.5 -125.5q25 77 33 168zM377 276v537q0 90 -66 90q-55 0 -55 -88v-549q0 -82 61 -82q60 0 60 92z" />
    <glyph glyph-name="r" unicode="r" horiz-adv-x="565" 
d="M252 1102v-139q64 145 168 145h8q57 0 86 -33.5t29 -91.5v-399h-213v245q0 39 -6.5 53.5t-30.5 14.5t-30.5 -15.5t-6.5 -52.5v-829h-219v1102h215z" />
    <glyph glyph-name="s" unicode="s" horiz-adv-x="561" 
d="M532 920v-166h-196v131q0 32 -11.5 46.5t-37.5 14.5q-28 0 -37.5 -16t-9.5 -51v-19q0 -40 10 -63t41 -60l133 -159q74 -89 98.5 -153t24.5 -151v-28q0 -51 -14 -96.5t-42 -84t-77.5 -61t-114.5 -22.5h-43q-123 0 -180.5 61.5t-57.5 163.5v199h205v-158q0 -41 13.5 -58.5
t42.5 -17.5q51 0 51 76v18q0 91 -60 158l-129 147q-62 72 -85 137t-23 148v31q0 109 58.5 170t178.5 61h39q223 0 223 -198z" />
    <glyph glyph-name="t" unicode="t" horiz-adv-x="497" 
d="M481 0h-217q-60 0 -95.5 32.5t-35.5 102.5v758h-125v209h125v362h219v-362h129v-209h-129v-631q0 -29 8 -40t35 -11h86v-211z" />
    <glyph glyph-name="u" unicode="u" horiz-adv-x="620" 
d="M584 1102v-1102h-211v131q-24 -38 -44 -63t-59 -48.5t-84 -23.5h-4q-64 0 -104.5 56t-40.5 130v920h219v-826q0 -73 51 -73q58 0 58 80v819h219z" />
    <glyph glyph-name="v" unicode="v" horiz-adv-x="569" 
d="M170 0l-176 1102h213l84 -688l82 688h202l-169 -1102h-236z" />
    <glyph glyph-name="w" unicode="w" horiz-adv-x="933" 
d="M391 0h-229l-168 1102h219l82 -686l84 686h192l84 -686l82 686h203l-168 -1102h-221l-80 627z" />
    <glyph glyph-name="x" unicode="x" horiz-adv-x="569" 
d="M150 588l-152 514h211l82 -328l74 328h194l-139 -510l158 -592h-205l-88 350l-95 -350h-198z" />
    <glyph glyph-name="y" unicode="y" horiz-adv-x="575" 
d="M166 33l-172 1069h213l86 -674l82 674h209l-222 -1323q-14 -84 -45.5 -124t-89.5 -40h-207v209h95q26 0 36 12.5t13 42.5l6 47q6 45 -4 107z" />
    <glyph glyph-name="z" unicode="z" horiz-adv-x="501" 
d="M33 1102h440v-182l-254 -719h270v-201h-479v193l248 712h-225v197z" />
    <glyph glyph-name="quoteleft" unicode="&#x2018;" horiz-adv-x="256" 
d="M147 1350h82v-230h-202v168q0 128 45 236h112q-32 -99 -37 -174z" />
    <glyph glyph-name="quoteright" unicode="&#x2019;" horiz-adv-x="256" 
d="M184 1120h-112q32 99 37 174h-82v230h202v-168q0 -128 -45 -236z" />
    <glyph glyph-name="quotedblleft" unicode="&#x201c;" horiz-adv-x="497" 
d="M72 1524h112q-32 -99 -37 -174h82v-230h-202v168q0 128 45 236zM313 1524h113q-32 -99 -37 -174h82v-230h-203v168q0 128 45 236z" />
    <glyph glyph-name="quotedblright" unicode="&#x201d;" horiz-adv-x="497" 
d="M426 1120h-113q32 99 37 174h-82v230h203v-168q0 -128 -45 -236zM184 1120h-112q32 99 37 174h-82v230h202v-168q0 -128 -45 -236z" />
    </font>
</defs>
</svg>
