<?xml version="1.0" standalone="no"?>
<!DOCTYPE svg PUBLIC "-//W3C//DTD SVG 1.1//EN" "http://www.w3.org/Graphics/SVG/1.1/DTD/svg11.dtd" >
<svg xmlns="http://www.w3.org/2000/svg" xmlns:xlink="http://www.w3.org/1999/xlink" version="1.1">
<metadata>
Created by FontForge 20170731 at Sat Aug 19 17:55:14 2023
 By Aleksey,,,
Copyright (c) 2020 by Artegra. All rights reserved.
</metadata>
<defs>
<font id="FONTSPRINGDEMO-DexaProCnRegular" horiz-adv-x="1224" >
  <font-face 
    font-family="FSP DEMO - Dexa Pro Cn"
    font-weight="400"
    font-stretch="condensed"
    units-per-em="2048"
    panose-1="2 0 5 6 4 0 0 2 0 4"
    ascent="1556"
    descent="-492"
    x-height="1008"
    cap-height="1475"
    bbox="-72 -492 1274 1556"
    underline-thickness="102"
    underline-position="-307"
    unicode-range="U+000D-007E"
  />
<missing-glyph 
d="M207 403q-13 0 -19 -2v-200q4 -2 19 -2q37 0 50 25t13 77q0 54 -13 78t-50 24zM518 330v-49h-82v-78h96v-49h-155v297h155v-52h-96v-69h82zM203 150q-47 0 -74 4v292q61 9 76 9q67 0 96 -37.5t29 -116.5t-29.5 -115t-97.5 -36zM586 451h80l39 -164l38 164h82
q3 -45 13 -297h-60q0 108 -6 213l-41 -168h-55l-41 168h-2q-4 -140 -4 -213h-58q3 156 15 297zM987 150q-60 0 -84 35.5t-24 115.5q0 81 24 117.5t84 36.5t85.5 -37t25.5 -117q0 -79 -25.5 -115t-85.5 -36zM987 403q-29 0 -39 -23.5t-10 -78.5q0 -54 10 -78t39 -24
q30 0 40.5 24t10.5 78q0 55 -10 78.5t-41 23.5zM967 1016q49 0 79.5 -24.5t39 -51t8.5 -53.5q0 -43 -34.5 -72.5t-72.5 -34.5q-213 -23 -340 -147q3 8 9 22t25 53.5t39 75.5t50 80.5t59.5 76t66 53.5t71.5 22zM285 909q39 0 78 -21t69.5 -55t58.5 -74.5t48 -81.5t35 -75
t22 -55l8 -21q-117 148 -319 148q-49 0 -88 30t-39 76q0 53 33.5 91t93.5 38zM643 1214q38 -37 48.5 -102t-2.5 -131t-31.5 -126.5t-35.5 -98.5l-18 -39q20 191 -125 330q-35 35 -42 81.5t24 83.5q23 23 53 34t65 3.5t64 -35.5z" />
    <glyph glyph-name=".notdef" 
d="M207 403q-13 0 -19 -2v-200q4 -2 19 -2q37 0 50 25t13 77q0 54 -13 78t-50 24zM518 330v-49h-82v-78h96v-49h-155v297h155v-52h-96v-69h82zM203 150q-47 0 -74 4v292q61 9 76 9q67 0 96 -37.5t29 -116.5t-29.5 -115t-97.5 -36zM586 451h80l39 -164l38 164h82
q3 -45 13 -297h-60q0 108 -6 213l-41 -168h-55l-41 168h-2q-4 -140 -4 -213h-58q3 156 15 297zM987 150q-60 0 -84 35.5t-24 115.5q0 81 24 117.5t84 36.5t85.5 -37t25.5 -117q0 -79 -25.5 -115t-85.5 -36zM987 403q-29 0 -39 -23.5t-10 -78.5q0 -54 10 -78t39 -24
q30 0 40.5 24t10.5 78q0 55 -10 78.5t-41 23.5zM967 1016q49 0 79.5 -24.5t39 -51t8.5 -53.5q0 -43 -34.5 -72.5t-72.5 -34.5q-213 -23 -340 -147q3 8 9 22t25 53.5t39 75.5t50 80.5t59.5 76t66 53.5t71.5 22zM285 909q39 0 78 -21t69.5 -55t58.5 -74.5t48 -81.5t35 -75
t22 -55l8 -21q-117 148 -319 148q-49 0 -88 30t-39 76q0 53 33.5 91t93.5 38zM643 1214q38 -37 48.5 -102t-2.5 -131t-31.5 -126.5t-35.5 -98.5l-18 -39q20 191 -125 330q-35 35 -42 81.5t24 83.5q23 23 53 34t65 3.5t64 -35.5z" />
    <glyph glyph-name="uni0000" horiz-adv-x="0" 
 />
    <glyph glyph-name="uni0000" horiz-adv-x="0" 
 />
    <glyph glyph-name="uni000D" unicode="&#xd;" horiz-adv-x="512" 
 />
    <glyph glyph-name="space" unicode=" " horiz-adv-x="315" 
 />
    <glyph glyph-name="exclam" unicode="!" 
d="M207 403q-13 0 -19 -2v-200q4 -2 19 -2q37 0 50 25t13 77q0 54 -13 78t-50 24zM518 330v-49h-82v-78h96v-49h-155v297h155v-52h-96v-69h82zM203 150q-47 0 -74 4v292q61 9 76 9q67 0 96 -37.5t29 -116.5t-29.5 -115t-97.5 -36zM586 451h80l39 -164l38 164h82
q3 -45 13 -297h-60q0 108 -6 213l-41 -168h-55l-41 168h-2q-4 -140 -4 -213h-58q3 156 15 297zM987 150q-60 0 -84 35.5t-24 115.5q0 81 24 117.5t84 36.5t85.5 -37t25.5 -117q0 -79 -25.5 -115t-85.5 -36zM987 403q-29 0 -39 -23.5t-10 -78.5q0 -54 10 -78t39 -24
q30 0 40.5 24t10.5 78q0 55 -10 78.5t-41 23.5zM967 1016q49 0 79.5 -24.5t39 -51t8.5 -53.5q0 -43 -34.5 -72.5t-72.5 -34.5q-213 -23 -340 -147q3 8 9 22t25 53.5t39 75.5t50 80.5t59.5 76t66 53.5t71.5 22zM285 909q39 0 78 -21t69.5 -55t58.5 -74.5t48 -81.5t35 -75
t22 -55l8 -21q-117 148 -319 148q-49 0 -88 30t-39 76q0 53 33.5 91t93.5 38zM643 1214q38 -37 48.5 -102t-2.5 -131t-31.5 -126.5t-35.5 -98.5l-18 -39q20 191 -125 330q-35 35 -42 81.5t24 83.5q23 23 53 34t65 3.5t64 -35.5z" />
    <glyph glyph-name="quotedbl" unicode="&#x22;" 
d="M207 403q-13 0 -19 -2v-200q4 -2 19 -2q37 0 50 25t13 77q0 54 -13 78t-50 24zM518 330v-49h-82v-78h96v-49h-155v297h155v-52h-96v-69h82zM203 150q-47 0 -74 4v292q61 9 76 9q67 0 96 -37.5t29 -116.5t-29.5 -115t-97.5 -36zM586 451h80l39 -164l38 164h82
q3 -45 13 -297h-60q0 108 -6 213l-41 -168h-55l-41 168h-2q-4 -140 -4 -213h-58q3 156 15 297zM987 150q-60 0 -84 35.5t-24 115.5q0 81 24 117.5t84 36.5t85.5 -37t25.5 -117q0 -79 -25.5 -115t-85.5 -36zM987 403q-29 0 -39 -23.5t-10 -78.5q0 -54 10 -78t39 -24
q30 0 40.5 24t10.5 78q0 55 -10 78.5t-41 23.5zM967 1016q49 0 79.5 -24.5t39 -51t8.5 -53.5q0 -43 -34.5 -72.5t-72.5 -34.5q-213 -23 -340 -147q3 8 9 22t25 53.5t39 75.5t50 80.5t59.5 76t66 53.5t71.5 22zM285 909q39 0 78 -21t69.5 -55t58.5 -74.5t48 -81.5t35 -75
t22 -55l8 -21q-117 148 -319 148q-49 0 -88 30t-39 76q0 53 33.5 91t93.5 38zM643 1214q38 -37 48.5 -102t-2.5 -131t-31.5 -126.5t-35.5 -98.5l-18 -39q20 191 -125 330q-35 35 -42 81.5t24 83.5q23 23 53 34t65 3.5t64 -35.5z" />
    <glyph glyph-name="numbersign" unicode="#" 
d="M207 403q-13 0 -19 -2v-200q4 -2 19 -2q37 0 50 25t13 77q0 54 -13 78t-50 24zM518 330v-49h-82v-78h96v-49h-155v297h155v-52h-96v-69h82zM203 150q-47 0 -74 4v292q61 9 76 9q67 0 96 -37.5t29 -116.5t-29.5 -115t-97.5 -36zM586 451h80l39 -164l38 164h82
q3 -45 13 -297h-60q0 108 -6 213l-41 -168h-55l-41 168h-2q-4 -140 -4 -213h-58q3 156 15 297zM987 150q-60 0 -84 35.5t-24 115.5q0 81 24 117.5t84 36.5t85.5 -37t25.5 -117q0 -79 -25.5 -115t-85.5 -36zM987 403q-29 0 -39 -23.5t-10 -78.5q0 -54 10 -78t39 -24
q30 0 40.5 24t10.5 78q0 55 -10 78.5t-41 23.5zM967 1016q49 0 79.5 -24.5t39 -51t8.5 -53.5q0 -43 -34.5 -72.5t-72.5 -34.5q-213 -23 -340 -147q3 8 9 22t25 53.5t39 75.5t50 80.5t59.5 76t66 53.5t71.5 22zM285 909q39 0 78 -21t69.5 -55t58.5 -74.5t48 -81.5t35 -75
t22 -55l8 -21q-117 148 -319 148q-49 0 -88 30t-39 76q0 53 33.5 91t93.5 38zM643 1214q38 -37 48.5 -102t-2.5 -131t-31.5 -126.5t-35.5 -98.5l-18 -39q20 191 -125 330q-35 35 -42 81.5t24 83.5q23 23 53 34t65 3.5t64 -35.5z" />
    <glyph glyph-name="dollar" unicode="$" 
d="M207 403q-13 0 -19 -2v-200q4 -2 19 -2q37 0 50 25t13 77q0 54 -13 78t-50 24zM518 330v-49h-82v-78h96v-49h-155v297h155v-52h-96v-69h82zM203 150q-47 0 -74 4v292q61 9 76 9q67 0 96 -37.5t29 -116.5t-29.5 -115t-97.5 -36zM586 451h80l39 -164l38 164h82
q3 -45 13 -297h-60q0 108 -6 213l-41 -168h-55l-41 168h-2q-4 -140 -4 -213h-58q3 156 15 297zM987 150q-60 0 -84 35.5t-24 115.5q0 81 24 117.5t84 36.5t85.5 -37t25.5 -117q0 -79 -25.5 -115t-85.5 -36zM987 403q-29 0 -39 -23.5t-10 -78.5q0 -54 10 -78t39 -24
q30 0 40.5 24t10.5 78q0 55 -10 78.5t-41 23.5zM967 1016q49 0 79.5 -24.5t39 -51t8.5 -53.5q0 -43 -34.5 -72.5t-72.5 -34.5q-213 -23 -340 -147q3 8 9 22t25 53.5t39 75.5t50 80.5t59.5 76t66 53.5t71.5 22zM285 909q39 0 78 -21t69.5 -55t58.5 -74.5t48 -81.5t35 -75
t22 -55l8 -21q-117 148 -319 148q-49 0 -88 30t-39 76q0 53 33.5 91t93.5 38zM643 1214q38 -37 48.5 -102t-2.5 -131t-31.5 -126.5t-35.5 -98.5l-18 -39q20 191 -125 330q-35 35 -42 81.5t24 83.5q23 23 53 34t65 3.5t64 -35.5z" />
    <glyph glyph-name="percent" unicode="%" 
d="M207 403q-13 0 -19 -2v-200q4 -2 19 -2q37 0 50 25t13 77q0 54 -13 78t-50 24zM518 330v-49h-82v-78h96v-49h-155v297h155v-52h-96v-69h82zM203 150q-47 0 -74 4v292q61 9 76 9q67 0 96 -37.5t29 -116.5t-29.5 -115t-97.5 -36zM586 451h80l39 -164l38 164h82
q3 -45 13 -297h-60q0 108 -6 213l-41 -168h-55l-41 168h-2q-4 -140 -4 -213h-58q3 156 15 297zM987 150q-60 0 -84 35.5t-24 115.5q0 81 24 117.5t84 36.5t85.5 -37t25.5 -117q0 -79 -25.5 -115t-85.5 -36zM987 403q-29 0 -39 -23.5t-10 -78.5q0 -54 10 -78t39 -24
q30 0 40.5 24t10.5 78q0 55 -10 78.5t-41 23.5zM967 1016q49 0 79.5 -24.5t39 -51t8.5 -53.5q0 -43 -34.5 -72.5t-72.5 -34.5q-213 -23 -340 -147q3 8 9 22t25 53.5t39 75.5t50 80.5t59.5 76t66 53.5t71.5 22zM285 909q39 0 78 -21t69.5 -55t58.5 -74.5t48 -81.5t35 -75
t22 -55l8 -21q-117 148 -319 148q-49 0 -88 30t-39 76q0 53 33.5 91t93.5 38zM643 1214q38 -37 48.5 -102t-2.5 -131t-31.5 -126.5t-35.5 -98.5l-18 -39q20 191 -125 330q-35 35 -42 81.5t24 83.5q23 23 53 34t65 3.5t64 -35.5z" />
    <glyph glyph-name="ampersand" unicode="&#x26;" 
d="M207 403q-13 0 -19 -2v-200q4 -2 19 -2q37 0 50 25t13 77q0 54 -13 78t-50 24zM518 330v-49h-82v-78h96v-49h-155v297h155v-52h-96v-69h82zM203 150q-47 0 -74 4v292q61 9 76 9q67 0 96 -37.5t29 -116.5t-29.5 -115t-97.5 -36zM586 451h80l39 -164l38 164h82
q3 -45 13 -297h-60q0 108 -6 213l-41 -168h-55l-41 168h-2q-4 -140 -4 -213h-58q3 156 15 297zM987 150q-60 0 -84 35.5t-24 115.5q0 81 24 117.5t84 36.5t85.5 -37t25.5 -117q0 -79 -25.5 -115t-85.5 -36zM987 403q-29 0 -39 -23.5t-10 -78.5q0 -54 10 -78t39 -24
q30 0 40.5 24t10.5 78q0 55 -10 78.5t-41 23.5zM967 1016q49 0 79.5 -24.5t39 -51t8.5 -53.5q0 -43 -34.5 -72.5t-72.5 -34.5q-213 -23 -340 -147q3 8 9 22t25 53.5t39 75.5t50 80.5t59.5 76t66 53.5t71.5 22zM285 909q39 0 78 -21t69.5 -55t58.5 -74.5t48 -81.5t35 -75
t22 -55l8 -21q-117 148 -319 148q-49 0 -88 30t-39 76q0 53 33.5 91t93.5 38zM643 1214q38 -37 48.5 -102t-2.5 -131t-31.5 -126.5t-35.5 -98.5l-18 -39q20 191 -125 330q-35 35 -42 81.5t24 83.5q23 23 53 34t65 3.5t64 -35.5z" />
    <glyph glyph-name="quotesingle" unicode="'" 
d="M207 403q-13 0 -19 -2v-200q4 -2 19 -2q37 0 50 25t13 77q0 54 -13 78t-50 24zM518 330v-49h-82v-78h96v-49h-155v297h155v-52h-96v-69h82zM203 150q-47 0 -74 4v292q61 9 76 9q67 0 96 -37.5t29 -116.5t-29.5 -115t-97.5 -36zM586 451h80l39 -164l38 164h82
q3 -45 13 -297h-60q0 108 -6 213l-41 -168h-55l-41 168h-2q-4 -140 -4 -213h-58q3 156 15 297zM987 150q-60 0 -84 35.5t-24 115.5q0 81 24 117.5t84 36.5t85.5 -37t25.5 -117q0 -79 -25.5 -115t-85.5 -36zM987 403q-29 0 -39 -23.5t-10 -78.5q0 -54 10 -78t39 -24
q30 0 40.5 24t10.5 78q0 55 -10 78.5t-41 23.5zM967 1016q49 0 79.5 -24.5t39 -51t8.5 -53.5q0 -43 -34.5 -72.5t-72.5 -34.5q-213 -23 -340 -147q3 8 9 22t25 53.5t39 75.5t50 80.5t59.5 76t66 53.5t71.5 22zM285 909q39 0 78 -21t69.5 -55t58.5 -74.5t48 -81.5t35 -75
t22 -55l8 -21q-117 148 -319 148q-49 0 -88 30t-39 76q0 53 33.5 91t93.5 38zM643 1214q38 -37 48.5 -102t-2.5 -131t-31.5 -126.5t-35.5 -98.5l-18 -39q20 191 -125 330q-35 35 -42 81.5t24 83.5q23 23 53 34t65 3.5t64 -35.5z" />
    <glyph glyph-name="parenleft" unicode="(" 
d="M207 403q-13 0 -19 -2v-200q4 -2 19 -2q37 0 50 25t13 77q0 54 -13 78t-50 24zM518 330v-49h-82v-78h96v-49h-155v297h155v-52h-96v-69h82zM203 150q-47 0 -74 4v292q61 9 76 9q67 0 96 -37.5t29 -116.5t-29.5 -115t-97.5 -36zM586 451h80l39 -164l38 164h82
q3 -45 13 -297h-60q0 108 -6 213l-41 -168h-55l-41 168h-2q-4 -140 -4 -213h-58q3 156 15 297zM987 150q-60 0 -84 35.5t-24 115.5q0 81 24 117.5t84 36.5t85.5 -37t25.5 -117q0 -79 -25.5 -115t-85.5 -36zM987 403q-29 0 -39 -23.5t-10 -78.5q0 -54 10 -78t39 -24
q30 0 40.5 24t10.5 78q0 55 -10 78.5t-41 23.5zM967 1016q49 0 79.5 -24.5t39 -51t8.5 -53.5q0 -43 -34.5 -72.5t-72.5 -34.5q-213 -23 -340 -147q3 8 9 22t25 53.5t39 75.5t50 80.5t59.5 76t66 53.5t71.5 22zM285 909q39 0 78 -21t69.5 -55t58.5 -74.5t48 -81.5t35 -75
t22 -55l8 -21q-117 148 -319 148q-49 0 -88 30t-39 76q0 53 33.5 91t93.5 38zM643 1214q38 -37 48.5 -102t-2.5 -131t-31.5 -126.5t-35.5 -98.5l-18 -39q20 191 -125 330q-35 35 -42 81.5t24 83.5q23 23 53 34t65 3.5t64 -35.5z" />
    <glyph glyph-name="parenright" unicode=")" 
d="M207 403q-13 0 -19 -2v-200q4 -2 19 -2q37 0 50 25t13 77q0 54 -13 78t-50 24zM518 330v-49h-82v-78h96v-49h-155v297h155v-52h-96v-69h82zM203 150q-47 0 -74 4v292q61 9 76 9q67 0 96 -37.5t29 -116.5t-29.5 -115t-97.5 -36zM586 451h80l39 -164l38 164h82
q3 -45 13 -297h-60q0 108 -6 213l-41 -168h-55l-41 168h-2q-4 -140 -4 -213h-58q3 156 15 297zM987 150q-60 0 -84 35.5t-24 115.5q0 81 24 117.5t84 36.5t85.5 -37t25.5 -117q0 -79 -25.5 -115t-85.5 -36zM987 403q-29 0 -39 -23.5t-10 -78.5q0 -54 10 -78t39 -24
q30 0 40.5 24t10.5 78q0 55 -10 78.5t-41 23.5zM967 1016q49 0 79.5 -24.5t39 -51t8.5 -53.5q0 -43 -34.5 -72.5t-72.5 -34.5q-213 -23 -340 -147q3 8 9 22t25 53.5t39 75.5t50 80.5t59.5 76t66 53.5t71.5 22zM285 909q39 0 78 -21t69.5 -55t58.5 -74.5t48 -81.5t35 -75
t22 -55l8 -21q-117 148 -319 148q-49 0 -88 30t-39 76q0 53 33.5 91t93.5 38zM643 1214q38 -37 48.5 -102t-2.5 -131t-31.5 -126.5t-35.5 -98.5l-18 -39q20 191 -125 330q-35 35 -42 81.5t24 83.5q23 23 53 34t65 3.5t64 -35.5z" />
    <glyph glyph-name="asterisk" unicode="*" 
d="M207 403q-13 0 -19 -2v-200q4 -2 19 -2q37 0 50 25t13 77q0 54 -13 78t-50 24zM518 330v-49h-82v-78h96v-49h-155v297h155v-52h-96v-69h82zM203 150q-47 0 -74 4v292q61 9 76 9q67 0 96 -37.5t29 -116.5t-29.5 -115t-97.5 -36zM586 451h80l39 -164l38 164h82
q3 -45 13 -297h-60q0 108 -6 213l-41 -168h-55l-41 168h-2q-4 -140 -4 -213h-58q3 156 15 297zM987 150q-60 0 -84 35.5t-24 115.5q0 81 24 117.5t84 36.5t85.5 -37t25.5 -117q0 -79 -25.5 -115t-85.5 -36zM987 403q-29 0 -39 -23.5t-10 -78.5q0 -54 10 -78t39 -24
q30 0 40.5 24t10.5 78q0 55 -10 78.5t-41 23.5zM967 1016q49 0 79.5 -24.5t39 -51t8.5 -53.5q0 -43 -34.5 -72.5t-72.5 -34.5q-213 -23 -340 -147q3 8 9 22t25 53.5t39 75.5t50 80.5t59.5 76t66 53.5t71.5 22zM285 909q39 0 78 -21t69.5 -55t58.5 -74.5t48 -81.5t35 -75
t22 -55l8 -21q-117 148 -319 148q-49 0 -88 30t-39 76q0 53 33.5 91t93.5 38zM643 1214q38 -37 48.5 -102t-2.5 -131t-31.5 -126.5t-35.5 -98.5l-18 -39q20 191 -125 330q-35 35 -42 81.5t24 83.5q23 23 53 34t65 3.5t64 -35.5z" />
    <glyph glyph-name="plus" unicode="+" 
d="M207 403q-13 0 -19 -2v-200q4 -2 19 -2q37 0 50 25t13 77q0 54 -13 78t-50 24zM518 330v-49h-82v-78h96v-49h-155v297h155v-52h-96v-69h82zM203 150q-47 0 -74 4v292q61 9 76 9q67 0 96 -37.5t29 -116.5t-29.5 -115t-97.5 -36zM586 451h80l39 -164l38 164h82
q3 -45 13 -297h-60q0 108 -6 213l-41 -168h-55l-41 168h-2q-4 -140 -4 -213h-58q3 156 15 297zM987 150q-60 0 -84 35.5t-24 115.5q0 81 24 117.5t84 36.5t85.5 -37t25.5 -117q0 -79 -25.5 -115t-85.5 -36zM987 403q-29 0 -39 -23.5t-10 -78.5q0 -54 10 -78t39 -24
q30 0 40.5 24t10.5 78q0 55 -10 78.5t-41 23.5zM967 1016q49 0 79.5 -24.5t39 -51t8.5 -53.5q0 -43 -34.5 -72.5t-72.5 -34.5q-213 -23 -340 -147q3 8 9 22t25 53.5t39 75.5t50 80.5t59.5 76t66 53.5t71.5 22zM285 909q39 0 78 -21t69.5 -55t58.5 -74.5t48 -81.5t35 -75
t22 -55l8 -21q-117 148 -319 148q-49 0 -88 30t-39 76q0 53 33.5 91t93.5 38zM643 1214q38 -37 48.5 -102t-2.5 -131t-31.5 -126.5t-35.5 -98.5l-18 -39q20 191 -125 330q-35 35 -42 81.5t24 83.5q23 23 53 34t65 3.5t64 -35.5z" />
    <glyph glyph-name="comma" unicode="," horiz-adv-x="434" 
d="M61 -201l107 437h174l-129 -437h-152z" />
    <glyph glyph-name="hyphen" unicode="-" 
d="M207 403q-13 0 -19 -2v-200q4 -2 19 -2q37 0 50 25t13 77q0 54 -13 78t-50 24zM518 330v-49h-82v-78h96v-49h-155v297h155v-52h-96v-69h82zM203 150q-47 0 -74 4v292q61 9 76 9q67 0 96 -37.5t29 -116.5t-29.5 -115t-97.5 -36zM586 451h80l39 -164l38 164h82
q3 -45 13 -297h-60q0 108 -6 213l-41 -168h-55l-41 168h-2q-4 -140 -4 -213h-58q3 156 15 297zM987 150q-60 0 -84 35.5t-24 115.5q0 81 24 117.5t84 36.5t85.5 -37t25.5 -117q0 -79 -25.5 -115t-85.5 -36zM987 403q-29 0 -39 -23.5t-10 -78.5q0 -54 10 -78t39 -24
q30 0 40.5 24t10.5 78q0 55 -10 78.5t-41 23.5zM967 1016q49 0 79.5 -24.5t39 -51t8.5 -53.5q0 -43 -34.5 -72.5t-72.5 -34.5q-213 -23 -340 -147q3 8 9 22t25 53.5t39 75.5t50 80.5t59.5 76t66 53.5t71.5 22zM285 909q39 0 78 -21t69.5 -55t58.5 -74.5t48 -81.5t35 -75
t22 -55l8 -21q-117 148 -319 148q-49 0 -88 30t-39 76q0 53 33.5 91t93.5 38zM643 1214q38 -37 48.5 -102t-2.5 -131t-31.5 -126.5t-35.5 -98.5l-18 -39q20 191 -125 330q-35 35 -42 81.5t24 83.5q23 23 53 34t65 3.5t64 -35.5z" />
    <glyph glyph-name="period" unicode="." horiz-adv-x="399" 
d="M92 98q0 47 30 77t77 30q49 0 78.5 -29.5t29.5 -77.5q0 -50 -29.5 -79t-78.5 -29q-48 0 -77.5 29.5t-29.5 78.5z" />
    <glyph glyph-name="slash" unicode="/" 
d="M207 403q-13 0 -19 -2v-200q4 -2 19 -2q37 0 50 25t13 77q0 54 -13 78t-50 24zM518 330v-49h-82v-78h96v-49h-155v297h155v-52h-96v-69h82zM203 150q-47 0 -74 4v292q61 9 76 9q67 0 96 -37.5t29 -116.5t-29.5 -115t-97.5 -36zM586 451h80l39 -164l38 164h82
q3 -45 13 -297h-60q0 108 -6 213l-41 -168h-55l-41 168h-2q-4 -140 -4 -213h-58q3 156 15 297zM987 150q-60 0 -84 35.5t-24 115.5q0 81 24 117.5t84 36.5t85.5 -37t25.5 -117q0 -79 -25.5 -115t-85.5 -36zM987 403q-29 0 -39 -23.5t-10 -78.5q0 -54 10 -78t39 -24
q30 0 40.5 24t10.5 78q0 55 -10 78.5t-41 23.5zM967 1016q49 0 79.5 -24.5t39 -51t8.5 -53.5q0 -43 -34.5 -72.5t-72.5 -34.5q-213 -23 -340 -147q3 8 9 22t25 53.5t39 75.5t50 80.5t59.5 76t66 53.5t71.5 22zM285 909q39 0 78 -21t69.5 -55t58.5 -74.5t48 -81.5t35 -75
t22 -55l8 -21q-117 148 -319 148q-49 0 -88 30t-39 76q0 53 33.5 91t93.5 38zM643 1214q38 -37 48.5 -102t-2.5 -131t-31.5 -126.5t-35.5 -98.5l-18 -39q20 191 -125 330q-35 35 -42 81.5t24 83.5q23 23 53 34t65 3.5t64 -35.5z" />
    <glyph glyph-name="zero" unicode="0" horiz-adv-x="1024" 
d="M510 -20q-144 0 -242 101.5t-142 268t-44 387.5q0 164 25.5 299.5t76.5 239.5t134.5 161.5t191.5 57.5q109 0 193 -57.5t135.5 -161.5t77.5 -239.5t26 -299.5q0 -220 -44.5 -387t-143.5 -268.5t-244 -101.5zM510 135q65 0 115.5 45t81.5 126t47 189.5t16 241.5t-16 241.5
t-47 189.5t-81.5 126t-115.5 45q-85 0 -143.5 -79t-85.5 -212t-27 -311t27 -311t85.5 -212t143.5 -79z" />
    <glyph glyph-name="one" unicode="1" horiz-adv-x="565" 
d="M270 0v1167l-164 -206l-88 149l285 365h139v-1475h-172z" />
    <glyph glyph-name="two" unicode="2" horiz-adv-x="905" 
d="M82 0v113l379 524q88 121 133 229t45 221q0 252 -180 252q-44 0 -80 -22.5t-58 -52.5t-38.5 -69.5t-23 -65.5t-9.5 -48l-162 33q6 38 16 77.5t37.5 97t65.5 100.5t104 74.5t148 31.5q171 0 261.5 -110t90.5 -298q0 -83 -19 -162.5t-55.5 -152t-67.5 -122.5t-77 -113
l-277 -381h508v-156h-741z" />
    <glyph glyph-name="three" unicode="3" horiz-adv-x="925" 
d="M467 -20q-72 0 -132 18.5t-98.5 48.5t-68.5 66t-45.5 72.5t-25.5 66.5t-13 48l-2 19l174 25q1 -8 4.5 -22.5t19 -50.5t36.5 -63.5t61 -50t90 -22.5q90 0 147.5 74t57.5 207q0 274 -328 274v144q66 0 119.5 14.5t95.5 45t65 83.5t23 125q0 114 -49.5 175.5t-138.5 61.5
q-32 0 -60 -12t-47 -31t-34.5 -41.5t-24.5 -45.5t-15 -42t-8 -31l-2 -12l-174 25q1 7 3 19.5t12 48.5t25 68.5t44 72.5t65 69t92.5 48.5t123.5 19.5q161 0 260.5 -104t99.5 -289q0 -128 -57 -215t-148 -119q42 -12 81 -37.5t73.5 -66.5t55 -105.5t20.5 -142.5
q0 -208 -101.5 -322t-275.5 -114z" />
    <glyph glyph-name="four" unicode="4" 
d="M207 403q-13 0 -19 -2v-200q4 -2 19 -2q37 0 50 25t13 77q0 54 -13 78t-50 24zM518 330v-49h-82v-78h96v-49h-155v297h155v-52h-96v-69h82zM203 150q-47 0 -74 4v292q61 9 76 9q67 0 96 -37.5t29 -116.5t-29.5 -115t-97.5 -36zM586 451h80l39 -164l38 164h82
q3 -45 13 -297h-60q0 108 -6 213l-41 -168h-55l-41 168h-2q-4 -140 -4 -213h-58q3 156 15 297zM987 150q-60 0 -84 35.5t-24 115.5q0 81 24 117.5t84 36.5t85.5 -37t25.5 -117q0 -79 -25.5 -115t-85.5 -36zM987 403q-29 0 -39 -23.5t-10 -78.5q0 -54 10 -78t39 -24
q30 0 40.5 24t10.5 78q0 55 -10 78.5t-41 23.5zM967 1016q49 0 79.5 -24.5t39 -51t8.5 -53.5q0 -43 -34.5 -72.5t-72.5 -34.5q-213 -23 -340 -147q3 8 9 22t25 53.5t39 75.5t50 80.5t59.5 76t66 53.5t71.5 22zM285 909q39 0 78 -21t69.5 -55t58.5 -74.5t48 -81.5t35 -75
t22 -55l8 -21q-117 148 -319 148q-49 0 -88 30t-39 76q0 53 33.5 91t93.5 38zM643 1214q38 -37 48.5 -102t-2.5 -131t-31.5 -126.5t-35.5 -98.5l-18 -39q20 191 -125 330q-35 35 -42 81.5t24 83.5q23 23 53 34t65 3.5t64 -35.5z" />
    <glyph glyph-name="five" unicode="5" horiz-adv-x="966" 
d="M123 252l151 65q8 -25 23.5 -52.5t41.5 -58.5t66 -51t87 -20q104 0 162.5 90t58.5 236q0 152 -52 239.5t-155 87.5q-68 0 -163.5 -29t-156.5 -58l-61 -29l33 803h667v-156h-503l-17 -434q32 21 90 40t111 19q97 0 171 -37.5t118.5 -104t67 -152.5t22.5 -189
q0 -100 -24.5 -186t-72 -152.5t-123.5 -104.5t-173 -38q-85 1 -153 26.5t-110 68.5t-67 86t-39 91z" />
    <glyph glyph-name="six" unicode="6" horiz-adv-x="978" 
d="M842 1288l-146 -69q-67 120 -186 120q-104 0 -174.5 -141t-91.5 -373q30 65 100.5 105.5t163.5 40.5q76 0 140.5 -29t109.5 -77.5t77 -112.5t47 -134t15 -143q0 -97 -24.5 -184t-72.5 -157.5t-127.5 -112t-180.5 -41.5q-410 0 -410 671q0 407 109.5 625.5t322.5 218.5
q74 0 135 -21.5t99 -56t60 -66t34 -63.5zM260 496q0 -156 61 -258.5t171 -102.5q112 0 172.5 93t60.5 247q0 153 -60.5 246.5t-172.5 93.5q-106 0 -169 -86t-63 -233z" />
    <glyph glyph-name="seven" unicode="7" horiz-adv-x="786" 
d="M164 0l409 1319h-553v156h746v-107l-426 -1368h-176z" />
    <glyph glyph-name="eight" unicode="8" horiz-adv-x="974" 
d="M487 -20q-181 0 -293 113t-112 321q0 135 64 232t155 128q-82 27 -139.5 115.5t-57.5 202.5q0 183 106.5 293t276.5 110t276.5 -110t106.5 -293q0 -114 -57 -202.5t-139 -115.5q91 -31 155 -128t64 -232q0 -207 -112.5 -320.5t-293.5 -113.5zM487 846q99 0 155 63.5
t56 182.5q0 120 -56.5 183.5t-154.5 63.5t-154.5 -63.5t-56.5 -183.5q0 -119 56 -182.5t155 -63.5zM487 135q110 0 172 73.5t62 205.5t-61.5 204t-172.5 72t-172 -72t-61 -204t61.5 -205.5t171.5 -73.5z" />
    <glyph glyph-name="nine" unicode="9" horiz-adv-x="978" 
d="M137 186l146 70q67 -121 186 -121q104 0 174.5 141t91.5 373q-30 -65 -100.5 -105t-163.5 -40q-76 0 -140.5 28.5t-109.5 77t-77 112.5t-47 134t-15 143q0 77 15 148.5t47.5 135t79 110.5t114.5 74.5t149 27.5q410 0 410 -672q0 -407 -109.5 -625t-322.5 -218
q-74 0 -135 21.5t-99 55.5t-60 65.5t-34 63.5zM719 979q0 156 -61 258t-171 102q-112 0 -172.5 -93t-60.5 -247q0 -153 60.5 -246.5t172.5 -93.5q106 0 169 86.5t63 233.5z" />
    <glyph glyph-name="colon" unicode=":" horiz-adv-x="399" 
d="M92 909q0 47 30 77t77 30q49 0 78.5 -29.5t29.5 -77.5q0 -49 -29.5 -78.5t-78.5 -29.5q-48 0 -77.5 29.5t-29.5 78.5zM92 98q0 47 30 77t77 30q49 0 78.5 -29.5t29.5 -77.5q0 -50 -29.5 -79t-78.5 -29q-48 0 -77.5 29.5t-29.5 78.5z" />
    <glyph glyph-name="semicolon" unicode=";" horiz-adv-x="466" 
d="M160 909q0 47 29.5 77t76.5 30q49 0 79 -29.5t30 -77.5q0 -49 -29.5 -78.5t-79.5 -29.5q-48 0 -77 29.5t-29 78.5zM61 -201l107 437h174l-129 -437h-152z" />
    <glyph glyph-name="less" unicode="&#x3c;" 
d="M207 403q-13 0 -19 -2v-200q4 -2 19 -2q37 0 50 25t13 77q0 54 -13 78t-50 24zM518 330v-49h-82v-78h96v-49h-155v297h155v-52h-96v-69h82zM203 150q-47 0 -74 4v292q61 9 76 9q67 0 96 -37.5t29 -116.5t-29.5 -115t-97.5 -36zM586 451h80l39 -164l38 164h82
q3 -45 13 -297h-60q0 108 -6 213l-41 -168h-55l-41 168h-2q-4 -140 -4 -213h-58q3 156 15 297zM987 150q-60 0 -84 35.5t-24 115.5q0 81 24 117.5t84 36.5t85.5 -37t25.5 -117q0 -79 -25.5 -115t-85.5 -36zM987 403q-29 0 -39 -23.5t-10 -78.5q0 -54 10 -78t39 -24
q30 0 40.5 24t10.5 78q0 55 -10 78.5t-41 23.5zM967 1016q49 0 79.5 -24.5t39 -51t8.5 -53.5q0 -43 -34.5 -72.5t-72.5 -34.5q-213 -23 -340 -147q3 8 9 22t25 53.5t39 75.5t50 80.5t59.5 76t66 53.5t71.5 22zM285 909q39 0 78 -21t69.5 -55t58.5 -74.5t48 -81.5t35 -75
t22 -55l8 -21q-117 148 -319 148q-49 0 -88 30t-39 76q0 53 33.5 91t93.5 38zM643 1214q38 -37 48.5 -102t-2.5 -131t-31.5 -126.5t-35.5 -98.5l-18 -39q20 191 -125 330q-35 35 -42 81.5t24 83.5q23 23 53 34t65 3.5t64 -35.5z" />
    <glyph glyph-name="equal" unicode="=" 
d="M207 403q-13 0 -19 -2v-200q4 -2 19 -2q37 0 50 25t13 77q0 54 -13 78t-50 24zM518 330v-49h-82v-78h96v-49h-155v297h155v-52h-96v-69h82zM203 150q-47 0 -74 4v292q61 9 76 9q67 0 96 -37.5t29 -116.5t-29.5 -115t-97.5 -36zM586 451h80l39 -164l38 164h82
q3 -45 13 -297h-60q0 108 -6 213l-41 -168h-55l-41 168h-2q-4 -140 -4 -213h-58q3 156 15 297zM987 150q-60 0 -84 35.5t-24 115.5q0 81 24 117.5t84 36.5t85.5 -37t25.5 -117q0 -79 -25.5 -115t-85.5 -36zM987 403q-29 0 -39 -23.5t-10 -78.5q0 -54 10 -78t39 -24
q30 0 40.5 24t10.5 78q0 55 -10 78.5t-41 23.5zM967 1016q49 0 79.5 -24.5t39 -51t8.5 -53.5q0 -43 -34.5 -72.5t-72.5 -34.5q-213 -23 -340 -147q3 8 9 22t25 53.5t39 75.5t50 80.5t59.5 76t66 53.5t71.5 22zM285 909q39 0 78 -21t69.5 -55t58.5 -74.5t48 -81.5t35 -75
t22 -55l8 -21q-117 148 -319 148q-49 0 -88 30t-39 76q0 53 33.5 91t93.5 38zM643 1214q38 -37 48.5 -102t-2.5 -131t-31.5 -126.5t-35.5 -98.5l-18 -39q20 191 -125 330q-35 35 -42 81.5t24 83.5q23 23 53 34t65 3.5t64 -35.5z" />
    <glyph glyph-name="greater" unicode="&#x3e;" 
d="M207 403q-13 0 -19 -2v-200q4 -2 19 -2q37 0 50 25t13 77q0 54 -13 78t-50 24zM518 330v-49h-82v-78h96v-49h-155v297h155v-52h-96v-69h82zM203 150q-47 0 -74 4v292q61 9 76 9q67 0 96 -37.5t29 -116.5t-29.5 -115t-97.5 -36zM586 451h80l39 -164l38 164h82
q3 -45 13 -297h-60q0 108 -6 213l-41 -168h-55l-41 168h-2q-4 -140 -4 -213h-58q3 156 15 297zM987 150q-60 0 -84 35.5t-24 115.5q0 81 24 117.5t84 36.5t85.5 -37t25.5 -117q0 -79 -25.5 -115t-85.5 -36zM987 403q-29 0 -39 -23.5t-10 -78.5q0 -54 10 -78t39 -24
q30 0 40.5 24t10.5 78q0 55 -10 78.5t-41 23.5zM967 1016q49 0 79.5 -24.5t39 -51t8.5 -53.5q0 -43 -34.5 -72.5t-72.5 -34.5q-213 -23 -340 -147q3 8 9 22t25 53.5t39 75.5t50 80.5t59.5 76t66 53.5t71.5 22zM285 909q39 0 78 -21t69.5 -55t58.5 -74.5t48 -81.5t35 -75
t22 -55l8 -21q-117 148 -319 148q-49 0 -88 30t-39 76q0 53 33.5 91t93.5 38zM643 1214q38 -37 48.5 -102t-2.5 -131t-31.5 -126.5t-35.5 -98.5l-18 -39q20 191 -125 330q-35 35 -42 81.5t24 83.5q23 23 53 34t65 3.5t64 -35.5z" />
    <glyph glyph-name="question" unicode="?" horiz-adv-x="921" 
d="M354 371v366q153 11 235.5 96t82.5 238q0 122 -56 202.5t-161 80.5q-53 0 -95.5 -28.5t-65.5 -68.5t-34.5 -71t-13.5 -49l-164 30q5 30 16 65.5t39 84t66.5 86.5t104.5 65t147 27q99 0 175.5 -36.5t121 -98.5t66.5 -135t22 -154q0 -184 -85.5 -288.5t-228.5 -137.5v-274
h-172zM336 98q0 47 29.5 77t76.5 30q49 0 79 -29.5t30 -77.5q0 -49 -29.5 -78.5t-79.5 -29.5q-48 0 -77 29.5t-29 78.5z" />
    <glyph glyph-name="at" unicode="@" 
d="M207 403q-13 0 -19 -2v-200q4 -2 19 -2q37 0 50 25t13 77q0 54 -13 78t-50 24zM518 330v-49h-82v-78h96v-49h-155v297h155v-52h-96v-69h82zM203 150q-47 0 -74 4v292q61 9 76 9q67 0 96 -37.5t29 -116.5t-29.5 -115t-97.5 -36zM586 451h80l39 -164l38 164h82
q3 -45 13 -297h-60q0 108 -6 213l-41 -168h-55l-41 168h-2q-4 -140 -4 -213h-58q3 156 15 297zM987 150q-60 0 -84 35.5t-24 115.5q0 81 24 117.5t84 36.5t85.5 -37t25.5 -117q0 -79 -25.5 -115t-85.5 -36zM987 403q-29 0 -39 -23.5t-10 -78.5q0 -54 10 -78t39 -24
q30 0 40.5 24t10.5 78q0 55 -10 78.5t-41 23.5zM967 1016q49 0 79.5 -24.5t39 -51t8.5 -53.5q0 -43 -34.5 -72.5t-72.5 -34.5q-213 -23 -340 -147q3 8 9 22t25 53.5t39 75.5t50 80.5t59.5 76t66 53.5t71.5 22zM285 909q39 0 78 -21t69.5 -55t58.5 -74.5t48 -81.5t35 -75
t22 -55l8 -21q-117 148 -319 148q-49 0 -88 30t-39 76q0 53 33.5 91t93.5 38zM643 1214q38 -37 48.5 -102t-2.5 -131t-31.5 -126.5t-35.5 -98.5l-18 -39q20 191 -125 330q-35 35 -42 81.5t24 83.5q23 23 53 34t65 3.5t64 -35.5z" />
    <glyph glyph-name="A" unicode="A" horiz-adv-x="1005" 
d="M20 0l357 1475h252l356 -1475h-170l-98 416h-426l-98 -416h-173zM326 571h356l-178 758z" />
    <glyph glyph-name="B" unicode="B" horiz-adv-x="1015" 
d="M123 0v1475h399q106 0 184 -32.5t121 -89t62.5 -122.5t19.5 -144q0 -123 -54.5 -204.5t-133.5 -116.5q101 -35 157 -123t56 -223q0 -66 -12 -125t-41 -114t-73 -94.5t-113.5 -63t-157.5 -23.5h-414zM295 838h235q104 0 155.5 67.5t51.5 181.5q0 105 -51.5 168.5
t-163.5 63.5h-227v-481zM295 156h242q117 0 171 74.5t54 189.5q0 120 -57.5 193t-174.5 73h-235v-530z" />
    <glyph glyph-name="C" unicode="C" horiz-adv-x="1019" 
d="M82 737q0 363 129 560.5t354 197.5q69 0 130 -20t103 -50.5t76 -70.5t53 -76.5t31 -73.5l-141 -65q-13 31 -34 63t-52 64.5t-74.5 52.5t-91.5 20q-139 0 -225 -154t-86 -448t86 -448t225 -154q48 0 91.5 20.5t74.5 53t52 64.5t34 63l141 -66q-12 -36 -31 -73t-53 -77
t-76 -70t-103 -50t-130 -20q-226 0 -354.5 197t-128.5 560z" />
    <glyph glyph-name="D" unicode="D" horiz-adv-x="1052" 
d="M123 0v1475h366q235 0 358.5 -196t123.5 -542t-123.5 -541.5t-358.5 -195.5h-366zM295 156h194q148 0 229 150.5t81 430.5t-81 431t-229 151h-194v-1163z" />
    <glyph glyph-name="E" unicode="E" horiz-adv-x="968" 
d="M123 0v1475h737v-156h-565v-479h526v-156h-526v-528h571v-156h-743z" />
    <glyph glyph-name="F" unicode="F" horiz-adv-x="915" 
d="M123 0v1475h711v-156h-539v-541h500v-155h-500v-623h-172z" />
    <glyph glyph-name="G" unicode="G" horiz-adv-x="1054" 
d="M565 -20q-226 0 -354.5 197t-128.5 560t129 560.5t354 197.5q69 0 130 -20t103 -50.5t76 -70.5t53 -76.5t31 -73.5l-141 -65q-13 31 -34 63t-52 64.5t-74.5 52.5t-91.5 20q-139 0 -225 -154t-86 -448t86 -448t225 -154q106 0 171 78t65 184v248h-230v156h402v-424
q0 -168 -111.5 -282.5t-296.5 -114.5z" />
    <glyph glyph-name="H" unicode="H" horiz-adv-x="1073" 
d="M123 0v1475h172v-633h483v633h172v-1475h-172v686h-483v-686h-172z" />
    <glyph glyph-name="I" unicode="I" horiz-adv-x="458" 
d="M143 0v1475h172v-1475h-172z" />
    <glyph glyph-name="J" unicode="J" horiz-adv-x="831" 
d="M82 272l166 43q4 -23 12.5 -48t24.5 -57.5t44 -53.5t64 -21q76 0 110 87t34 274v979h172v-1004q0 -140 -21 -237t-63 -152t-98 -78.5t-134 -23.5q-66 0 -120 22.5t-86.5 55.5t-56 75.5t-34 75.5t-14.5 63z" />
    <glyph glyph-name="K" unicode="K" horiz-adv-x="940" 
d="M123 0v1475h172v-652l432 652h191l-416 -625l418 -850h-177l-348 707l-100 -138v-569h-172z" />
    <glyph glyph-name="L" unicode="L" horiz-adv-x="856" 
d="M123 0v1475h172v-1319h541v-156h-713z" />
    <glyph glyph-name="M" unicode="M" horiz-adv-x="1310" 
d="M123 0v1475h270l262 -1364l263 1364h270v-1475h-172v1300l-248 -1300h-225l-248 1298v-1298h-172z" />
    <glyph glyph-name="N" unicode="N" horiz-adv-x="1067" 
d="M295 0h-172v1475h229l420 -1231v1231h172v-1475h-231l-418 1231v-1231z" />
    <glyph glyph-name="O" unicode="O" horiz-adv-x="1138" 
d="M82 737q0 362 130.5 560t356.5 198t357 -198t131 -560t-131 -559.5t-357 -197.5t-356.5 197.5t-130.5 559.5zM569 135q140 0 228 154.5t88 447.5t-88 447.5t-228 154.5t-227.5 -154.5t-87.5 -447.5t87.5 -447.5t227.5 -154.5z" />
    <glyph glyph-name="P" unicode="P" horiz-adv-x="1015" 
d="M123 0v1475h418q187 0 290 -131t103 -343t-103 -342.5t-290 -130.5h-246v-528h-172zM295 684h246q105 0 163 87.5t58 229.5t-58 230t-163 88h-246v-635z" />
    <glyph glyph-name="Q" unicode="Q" horiz-adv-x="1138" 
d="M809 -174l-98 178q-65 -24 -142 -24q-219 0 -353 199t-134 558t134 558.5t353 199.5t353.5 -199.5t134.5 -558.5q0 -224 -54 -388.5t-153 -258.5l141 -264h-182zM569 135q140 0 228 154.5t88 447.5t-88 447.5t-228 154.5t-227.5 -154.5t-87.5 -447.5t87.5 -447.5
t227.5 -154.5z" />
    <glyph glyph-name="R" unicode="R" horiz-adv-x="999" 
d="M295 0h-172v1475h409q185 0 285.5 -118.5t100.5 -312.5q0 -299 -238 -407l238 -637h-177l-225 610h-221v-610zM295 1319v-553h237q107 0 160 74t53 202q0 129 -53 203t-160 74h-237z" />
    <glyph glyph-name="S" unicode="S" horiz-adv-x="929" 
d="M82 291l154 59q9 -25 16 -42t28.5 -53.5t44.5 -59t61.5 -41.5t82.5 -19q105 0 156 75.5t51 197.5q0 104 -56 173t-157 101q-354 110 -354 424q0 175 91 282t265 107q81 0 147.5 -28t106 -71t62.5 -85t32 -80l-149 -60q-13 32 -27 56.5t-37.5 52.5t-58 43.5t-76.5 15.5
q-96 0 -140 -65.5t-44 -167.5q0 -103 51 -165t160 -99q86 -29 146.5 -62t110.5 -83t74.5 -121.5t24.5 -167.5q0 -198 -98 -313t-281 -115q-78 0 -144 24.5t-107 60t-72 80t-45 80.5t-19 66z" />
    <glyph glyph-name="T" unicode="T" horiz-adv-x="884" 
d="M356 0v1319h-336v156h844v-156h-336v-1319h-172z" />
    <glyph glyph-name="U" unicode="U" horiz-adv-x="1056" 
d="M123 1475h172v-928q0 -118 16.5 -200t48 -127.5t72 -65t94.5 -19.5q55 0 96 19.5t73.5 65t49.5 127.5t17 200v928h172v-928q0 -296 -102.5 -431.5t-305.5 -135.5q-201 0 -302 135.5t-101 431.5v928z" />
    <glyph glyph-name="V" unicode="V" horiz-adv-x="952" 
d="M365 0l-345 1475h173l284 -1256l285 1256h170l-344 -1475h-223z" />
    <glyph glyph-name="W" unicode="W" horiz-adv-x="1294" 
d="M279 0l-259 1475h170l191 -1196l166 1196h203l165 -1196l191 1196h168l-256 -1475h-199l-170 1231l-172 -1231h-198z" />
    <glyph glyph-name="X" unicode="X" horiz-adv-x="935" 
d="M20 0l342 770l-317 705h180l244 -570l242 570h180l-316 -705l340 -770h-176l-270 635l-270 -635h-179z" />
    <glyph glyph-name="Y" unicode="Y" horiz-adv-x="923" 
d="M377 0v618l-357 857h179l262 -652l264 652h178l-354 -857v-618h-172z" />
    <glyph glyph-name="Z" unicode="Z" horiz-adv-x="937" 
d="M82 0v96l557 1223h-557v156h772v-97l-559 -1222h561v-156h-774z" />
    <glyph glyph-name="bracketleft" unicode="[" 
d="M207 403q-13 0 -19 -2v-200q4 -2 19 -2q37 0 50 25t13 77q0 54 -13 78t-50 24zM518 330v-49h-82v-78h96v-49h-155v297h155v-52h-96v-69h82zM203 150q-47 0 -74 4v292q61 9 76 9q67 0 96 -37.5t29 -116.5t-29.5 -115t-97.5 -36zM586 451h80l39 -164l38 164h82
q3 -45 13 -297h-60q0 108 -6 213l-41 -168h-55l-41 168h-2q-4 -140 -4 -213h-58q3 156 15 297zM987 150q-60 0 -84 35.5t-24 115.5q0 81 24 117.5t84 36.5t85.5 -37t25.5 -117q0 -79 -25.5 -115t-85.5 -36zM987 403q-29 0 -39 -23.5t-10 -78.5q0 -54 10 -78t39 -24
q30 0 40.5 24t10.5 78q0 55 -10 78.5t-41 23.5zM967 1016q49 0 79.5 -24.5t39 -51t8.5 -53.5q0 -43 -34.5 -72.5t-72.5 -34.5q-213 -23 -340 -147q3 8 9 22t25 53.5t39 75.5t50 80.5t59.5 76t66 53.5t71.5 22zM285 909q39 0 78 -21t69.5 -55t58.5 -74.5t48 -81.5t35 -75
t22 -55l8 -21q-117 148 -319 148q-49 0 -88 30t-39 76q0 53 33.5 91t93.5 38zM643 1214q38 -37 48.5 -102t-2.5 -131t-31.5 -126.5t-35.5 -98.5l-18 -39q20 191 -125 330q-35 35 -42 81.5t24 83.5q23 23 53 34t65 3.5t64 -35.5z" />
    <glyph glyph-name="backslash" unicode="\" 
d="M207 403q-13 0 -19 -2v-200q4 -2 19 -2q37 0 50 25t13 77q0 54 -13 78t-50 24zM518 330v-49h-82v-78h96v-49h-155v297h155v-52h-96v-69h82zM203 150q-47 0 -74 4v292q61 9 76 9q67 0 96 -37.5t29 -116.5t-29.5 -115t-97.5 -36zM586 451h80l39 -164l38 164h82
q3 -45 13 -297h-60q0 108 -6 213l-41 -168h-55l-41 168h-2q-4 -140 -4 -213h-58q3 156 15 297zM987 150q-60 0 -84 35.5t-24 115.5q0 81 24 117.5t84 36.5t85.5 -37t25.5 -117q0 -79 -25.5 -115t-85.5 -36zM987 403q-29 0 -39 -23.5t-10 -78.5q0 -54 10 -78t39 -24
q30 0 40.5 24t10.5 78q0 55 -10 78.5t-41 23.5zM967 1016q49 0 79.5 -24.5t39 -51t8.5 -53.5q0 -43 -34.5 -72.5t-72.5 -34.5q-213 -23 -340 -147q3 8 9 22t25 53.5t39 75.5t50 80.5t59.5 76t66 53.5t71.5 22zM285 909q39 0 78 -21t69.5 -55t58.5 -74.5t48 -81.5t35 -75
t22 -55l8 -21q-117 148 -319 148q-49 0 -88 30t-39 76q0 53 33.5 91t93.5 38zM643 1214q38 -37 48.5 -102t-2.5 -131t-31.5 -126.5t-35.5 -98.5l-18 -39q20 191 -125 330q-35 35 -42 81.5t24 83.5q23 23 53 34t65 3.5t64 -35.5z" />
    <glyph glyph-name="bracketright" unicode="]" 
d="M207 403q-13 0 -19 -2v-200q4 -2 19 -2q37 0 50 25t13 77q0 54 -13 78t-50 24zM518 330v-49h-82v-78h96v-49h-155v297h155v-52h-96v-69h82zM203 150q-47 0 -74 4v292q61 9 76 9q67 0 96 -37.5t29 -116.5t-29.5 -115t-97.5 -36zM586 451h80l39 -164l38 164h82
q3 -45 13 -297h-60q0 108 -6 213l-41 -168h-55l-41 168h-2q-4 -140 -4 -213h-58q3 156 15 297zM987 150q-60 0 -84 35.5t-24 115.5q0 81 24 117.5t84 36.5t85.5 -37t25.5 -117q0 -79 -25.5 -115t-85.5 -36zM987 403q-29 0 -39 -23.5t-10 -78.5q0 -54 10 -78t39 -24
q30 0 40.5 24t10.5 78q0 55 -10 78.5t-41 23.5zM967 1016q49 0 79.5 -24.5t39 -51t8.5 -53.5q0 -43 -34.5 -72.5t-72.5 -34.5q-213 -23 -340 -147q3 8 9 22t25 53.5t39 75.5t50 80.5t59.5 76t66 53.5t71.5 22zM285 909q39 0 78 -21t69.5 -55t58.5 -74.5t48 -81.5t35 -75
t22 -55l8 -21q-117 148 -319 148q-49 0 -88 30t-39 76q0 53 33.5 91t93.5 38zM643 1214q38 -37 48.5 -102t-2.5 -131t-31.5 -126.5t-35.5 -98.5l-18 -39q20 191 -125 330q-35 35 -42 81.5t24 83.5q23 23 53 34t65 3.5t64 -35.5z" />
    <glyph glyph-name="asciicircum" unicode="^" 
d="M207 403q-13 0 -19 -2v-200q4 -2 19 -2q37 0 50 25t13 77q0 54 -13 78t-50 24zM518 330v-49h-82v-78h96v-49h-155v297h155v-52h-96v-69h82zM203 150q-47 0 -74 4v292q61 9 76 9q67 0 96 -37.5t29 -116.5t-29.5 -115t-97.5 -36zM586 451h80l39 -164l38 164h82
q3 -45 13 -297h-60q0 108 -6 213l-41 -168h-55l-41 168h-2q-4 -140 -4 -213h-58q3 156 15 297zM987 150q-60 0 -84 35.5t-24 115.5q0 81 24 117.5t84 36.5t85.5 -37t25.5 -117q0 -79 -25.5 -115t-85.5 -36zM987 403q-29 0 -39 -23.5t-10 -78.5q0 -54 10 -78t39 -24
q30 0 40.5 24t10.5 78q0 55 -10 78.5t-41 23.5zM967 1016q49 0 79.5 -24.5t39 -51t8.5 -53.5q0 -43 -34.5 -72.5t-72.5 -34.5q-213 -23 -340 -147q3 8 9 22t25 53.5t39 75.5t50 80.5t59.5 76t66 53.5t71.5 22zM285 909q39 0 78 -21t69.5 -55t58.5 -74.5t48 -81.5t35 -75
t22 -55l8 -21q-117 148 -319 148q-49 0 -88 30t-39 76q0 53 33.5 91t93.5 38zM643 1214q38 -37 48.5 -102t-2.5 -131t-31.5 -126.5t-35.5 -98.5l-18 -39q20 191 -125 330q-35 35 -42 81.5t24 83.5q23 23 53 34t65 3.5t64 -35.5z" />
    <glyph glyph-name="underscore" unicode="_" 
d="M207 403q-13 0 -19 -2v-200q4 -2 19 -2q37 0 50 25t13 77q0 54 -13 78t-50 24zM518 330v-49h-82v-78h96v-49h-155v297h155v-52h-96v-69h82zM203 150q-47 0 -74 4v292q61 9 76 9q67 0 96 -37.5t29 -116.5t-29.5 -115t-97.5 -36zM586 451h80l39 -164l38 164h82
q3 -45 13 -297h-60q0 108 -6 213l-41 -168h-55l-41 168h-2q-4 -140 -4 -213h-58q3 156 15 297zM987 150q-60 0 -84 35.5t-24 115.5q0 81 24 117.5t84 36.5t85.5 -37t25.5 -117q0 -79 -25.5 -115t-85.5 -36zM987 403q-29 0 -39 -23.5t-10 -78.5q0 -54 10 -78t39 -24
q30 0 40.5 24t10.5 78q0 55 -10 78.5t-41 23.5zM967 1016q49 0 79.5 -24.5t39 -51t8.5 -53.5q0 -43 -34.5 -72.5t-72.5 -34.5q-213 -23 -340 -147q3 8 9 22t25 53.5t39 75.5t50 80.5t59.5 76t66 53.5t71.5 22zM285 909q39 0 78 -21t69.5 -55t58.5 -74.5t48 -81.5t35 -75
t22 -55l8 -21q-117 148 -319 148q-49 0 -88 30t-39 76q0 53 33.5 91t93.5 38zM643 1214q38 -37 48.5 -102t-2.5 -131t-31.5 -126.5t-35.5 -98.5l-18 -39q20 191 -125 330q-35 35 -42 81.5t24 83.5q23 23 53 34t65 3.5t64 -35.5z" />
    <glyph glyph-name="grave" unicode="`" 
d="M207 403q-13 0 -19 -2v-200q4 -2 19 -2q37 0 50 25t13 77q0 54 -13 78t-50 24zM518 330v-49h-82v-78h96v-49h-155v297h155v-52h-96v-69h82zM203 150q-47 0 -74 4v292q61 9 76 9q67 0 96 -37.5t29 -116.5t-29.5 -115t-97.5 -36zM586 451h80l39 -164l38 164h82
q3 -45 13 -297h-60q0 108 -6 213l-41 -168h-55l-41 168h-2q-4 -140 -4 -213h-58q3 156 15 297zM987 150q-60 0 -84 35.5t-24 115.5q0 81 24 117.5t84 36.5t85.5 -37t25.5 -117q0 -79 -25.5 -115t-85.5 -36zM987 403q-29 0 -39 -23.5t-10 -78.5q0 -54 10 -78t39 -24
q30 0 40.5 24t10.5 78q0 55 -10 78.5t-41 23.5zM967 1016q49 0 79.5 -24.5t39 -51t8.5 -53.5q0 -43 -34.5 -72.5t-72.5 -34.5q-213 -23 -340 -147q3 8 9 22t25 53.5t39 75.5t50 80.5t59.5 76t66 53.5t71.5 22zM285 909q39 0 78 -21t69.5 -55t58.5 -74.5t48 -81.5t35 -75
t22 -55l8 -21q-117 148 -319 148q-49 0 -88 30t-39 76q0 53 33.5 91t93.5 38zM643 1214q38 -37 48.5 -102t-2.5 -131t-31.5 -126.5t-35.5 -98.5l-18 -39q20 191 -125 330q-35 35 -42 81.5t24 83.5q23 23 53 34t65 3.5t64 -35.5z" />
    <glyph glyph-name="a" unicode="a" horiz-adv-x="800" 
d="M354 -20q-129 0 -205.5 78.5t-76.5 236.5q0 65 15.5 116t39.5 85.5t63 59t76 37.5t89.5 20.5t92.5 9.5t95 2q0 125 -34 193.5t-120 68.5q-58 0 -122 -29.5t-113 -69.5l-66 121q45 43 122.5 81t178.5 38q80 0 138 -23.5t92.5 -62t55 -100t27.5 -125.5t7 -150v-567h-166
v106q-21 -65 -74 -95.5t-115 -30.5zM373 121q86 0 128 79t42 210v82h-45t-45.5 -2t-46.5 -5.5t-42.5 -10t-41 -16t-33.5 -24.5t-28 -34.5t-16.5 -46t-6.5 -58.5q0 -83 34 -128.5t101 -45.5z" />
    <glyph glyph-name="b" unicode="b" horiz-adv-x="899" 
d="M113 0v1556h168v-710q27 76 82.5 129t138.5 53q153 0 239 -145t86 -379t-86 -379t-239 -145q-147 0 -221 182v-162h-168zM469 121q89 0 139.5 107t50.5 276t-50.5 276t-139.5 107q-88 0 -138 -107t-50 -276t50 -276t138 -107z" />
    <glyph glyph-name="c" unicode="c" horiz-adv-x="772" 
d="M422 -20q-115 0 -195 67.5t-117.5 184t-37.5 272.5t37.5 272.5t117.5 184t195 67.5q64 0 118 -22t89 -58t57.5 -72.5t34.5 -74.5l-135 -64q-7 17 -18 37.5t-31.5 48.5t-51 46t-63.5 18q-84 0 -133 -107.5t-49 -275.5t49 -275.5t133 -107.5q33 0 63.5 18t51 45.5t31.5 48
t18 37.5l135 -63q-12 -38 -34.5 -74.5t-57.5 -72.5t-89 -58t-118 -22z" />
    <glyph glyph-name="d" unicode="d" horiz-adv-x="899" 
d="M397 -20q-153 0 -239 145t-86 379t86 379t239 145q83 0 138.5 -53t82.5 -129v710h168v-1556h-168v162q-74 -182 -221 -182zM430 121q88 0 138 107t50 276t-50 276t-138 107q-89 0 -139.5 -107t-50.5 -276t50.5 -276t139.5 -107z" />
    <glyph glyph-name="e" unicode="e" horiz-adv-x="829" 
d="M242 436q5 -144 51.5 -229.5t134.5 -85.5q87 0 172 129l125 -76q-34 -73 -110 -133.5t-187 -60.5q-177 0 -266.5 142.5t-89.5 381.5q0 153 39 270.5t117 185.5t186 68q63 0 115.5 -21t88 -57t64 -84t42.5 -102.5t24 -112t9 -112t-3 -103.5h-512zM582 569q0 144 -43 231
t-125 87q-74 0 -120 -89.5t-52 -228.5h340z" />
    <glyph glyph-name="f" unicode="f" horiz-adv-x="565" 
d="M180 0v866h-129v142h129v88q0 96 6.5 166t23.5 128t45.5 93t71.5 54t103 19q34 0 65 -7.5t45 -14.5l15 -8l-23 -131q-49 20 -90 20q-55 0 -74.5 -73.5t-19.5 -245.5v-88h176v-142h-176v-866h-168z" />
    <glyph glyph-name="g" unicode="g" horiz-adv-x="899" 
d="M397 -20q-153 0 -239 145t-86 379t86 379t239 145q83 0 138.5 -53t82.5 -129v162h168v-947q0 -103 -10 -184.5t-35 -152t-65 -117t-102 -73t-144 -26.5q-67 0 -123.5 17t-93.5 45t-58.5 50.5t-35.5 45.5l88 115q54 -66 101.5 -98.5t121.5 -32.5q104 0 146 104.5t42 306.5
v101q-74 -182 -221 -182zM430 121q88 0 138 107t50 276t-50 276t-138 107q-89 0 -139.5 -107t-50.5 -276t50.5 -276t139.5 -107z" />
    <glyph glyph-name="h" unicode="h" horiz-adv-x="847" 
d="M102 0v1556h168v-679q60 151 207 151q139 0 209 -96t70 -311v-621h-168v621q0 145 -36.5 205.5t-117.5 60.5q-76 0 -120 -67.5t-44 -209.5v-610h-168z" />
    <glyph glyph-name="i" unicode="i" horiz-adv-x="413" 
d="M100 1309q0 47 30 76.5t77 29.5q49 0 78.5 -29t29.5 -77q0 -50 -29.5 -79.5t-78.5 -29.5q-48 0 -77.5 30t-29.5 79zM123 0v1008h168v-1008h-168z" />
    <glyph glyph-name="j" unicode="j" horiz-adv-x="413" 
d="M100 1309q0 47 30 76.5t77 29.5q49 0 78.5 -29t29.5 -77q0 -50 -29.5 -79.5t-78.5 -29.5q-48 0 -77.5 30t-29.5 79zM-72 -461l25 137q53 -26 102 -26q24 0 37 11.5t20.5 50t9 88t1.5 149.5v1059h168v-1059q0 -106 -5 -173t-19 -123t-40.5 -85t-68 -44.5t-103.5 -15.5
q-33 0 -64.5 8t-46.5 16z" />
    <glyph glyph-name="k" unicode="k" horiz-adv-x="788" 
d="M113 0v1556h168v-987l284 439h191l-281 -416l293 -592h-176l-232 467l-79 -74v-393h-168z" />
    <glyph glyph-name="l" unicode="l" horiz-adv-x="393" 
d="M113 0v1556h168v-1556h-168z" />
    <glyph glyph-name="m" unicode="m" horiz-adv-x="1265" 
d="M113 0v1008h168v-86q25 47 71.5 76.5t100.5 29.5q176 0 233 -135q20 48 76 91.5t137 43.5q138 0 206.5 -87.5t68.5 -299.5v-641h-168v641q0 133 -31 189.5t-98 56.5q-74 0 -112 -58t-38 -188v-641h-168v641q0 133 -31 189.5t-98 56.5q-73 0 -111 -58t-38 -188v-641h-168z
" />
    <glyph glyph-name="n" unicode="n" horiz-adv-x="858" 
d="M113 0v1008h168v-131q60 151 206 151q139 0 209 -96t70 -311v-621h-168v621q0 145 -36.5 205.5t-117.5 60.5q-76 0 -119.5 -67.5t-43.5 -209.5v-610h-168z" />
    <glyph glyph-name="o" unicode="o" horiz-adv-x="843" 
d="M422 -20q-115 0 -195 67.5t-117.5 184t-37.5 272.5t37.5 272.5t117.5 184t195 67.5t195 -67.5t117.5 -184t37.5 -272.5t-37.5 -272.5t-117.5 -184t-195 -67.5zM422 121q84 0 133 107.5t49 275.5t-49 275.5t-133 107.5t-133 -107.5t-49 -275.5t49 -275.5t133 -107.5z" />
    <glyph glyph-name="p" unicode="p" horiz-adv-x="899" 
d="M113 1008h168v-162q74 182 221 182q153 0 239 -145t86 -379t-86 -379t-239 -145q-83 0 -138.5 53t-82.5 129v-654h-168v1500zM469 887q-88 0 -138 -107t-50 -276t50 -276t138 -107q89 0 139.5 107t50.5 276t-50.5 276t-139.5 107z" />
    <glyph glyph-name="q" unicode="q" horiz-adv-x="899" 
d="M786 1008v-1500h-168v654q-27 -76 -82.5 -129t-138.5 -53q-153 0 -239 145t-86 379t86 379t239 145q147 0 221 -182v162h168zM430 887q-89 0 -139.5 -107t-50.5 -276t50.5 -276t139.5 -107q88 0 138 107t50 276t-50 276t-138 107z" />
    <glyph glyph-name="r" unicode="r" horiz-adv-x="589" 
d="M113 0v1008h168v-107q14 55 57.5 91t105.5 36q51 0 95 -12v-139q-52 10 -97 10q-161 0 -161 -328v-559h-168z" />
    <glyph glyph-name="s" unicode="s" horiz-adv-x="710" 
d="M61 182l138 62q22 -55 61 -89t92 -34q61 0 96 41.5t35 109.5q0 77 -39 114t-125 65q-124 41 -181.5 114t-57.5 185q0 121 69 199.5t203 78.5q204 0 273 -192l-138 -62q-26 52 -56.5 82.5t-78.5 30.5q-49 0 -77.5 -37t-28.5 -100q0 -59 35.5 -94t107.5 -60
q137 -41 198.5 -113.5t61.5 -210.5q0 -139 -81.5 -215.5t-215.5 -76.5q-111 0 -187 53.5t-104 148.5z" />
    <glyph glyph-name="t" unicode="t" horiz-adv-x="593" 
d="M416 -20q-73 0 -119 21t-72 72t-35.5 121.5t-9.5 184.5v487h-129v142h129v292h168v-292h189v-142h-189v-487q0 -152 17.5 -205t70.5 -53q19 0 40 5t32 10l12 5l23 -131q-53 -30 -127 -30z" />
    <glyph glyph-name="u" unicode="u" horiz-adv-x="868" 
d="M756 1008v-1008h-168v131q-60 -151 -207 -151q-139 0 -209 96t-70 311v621h168v-621q0 -145 36.5 -205.5t117.5 -60.5q76 0 120 67.5t44 208.5v611h168z" />
    <glyph glyph-name="v" unicode="v" horiz-adv-x="741" 
d="M279 0l-248 1008h174l168 -750l166 750h172l-246 -1008h-186z" />
    <glyph glyph-name="w" unicode="w" horiz-adv-x="1095" 
d="M231 0l-200 1008h166l133 -744l127 744h184l125 -744l133 744h166l-203 -1008h-184l-131 776l-129 -776h-187z" />
    <glyph glyph-name="x" unicode="x" horiz-adv-x="729" 
d="M20 0l250 532l-233 476h172l156 -342l155 342h170l-231 -476l250 -532h-170l-174 395l-175 -395h-170z" />
    <glyph glyph-name="y" unicode="y" horiz-adv-x="741" 
d="M109 -492v144q58 0 101 85.5t83 254.5l-262 1016h174l168 -770l166 770h172l-254 -1008q-67 -265 -143 -378.5t-205 -113.5z" />
    <glyph glyph-name="z" unicode="z" horiz-adv-x="739" 
d="M72 0v78l389 788h-375v142h582v-78l-389 -789h389v-141h-596z" />
    <glyph glyph-name="braceleft" unicode="{" 
d="M207 403q-13 0 -19 -2v-200q4 -2 19 -2q37 0 50 25t13 77q0 54 -13 78t-50 24zM518 330v-49h-82v-78h96v-49h-155v297h155v-52h-96v-69h82zM203 150q-47 0 -74 4v292q61 9 76 9q67 0 96 -37.5t29 -116.5t-29.5 -115t-97.5 -36zM586 451h80l39 -164l38 164h82
q3 -45 13 -297h-60q0 108 -6 213l-41 -168h-55l-41 168h-2q-4 -140 -4 -213h-58q3 156 15 297zM987 150q-60 0 -84 35.5t-24 115.5q0 81 24 117.5t84 36.5t85.5 -37t25.5 -117q0 -79 -25.5 -115t-85.5 -36zM987 403q-29 0 -39 -23.5t-10 -78.5q0 -54 10 -78t39 -24
q30 0 40.5 24t10.5 78q0 55 -10 78.5t-41 23.5zM967 1016q49 0 79.5 -24.5t39 -51t8.5 -53.5q0 -43 -34.5 -72.5t-72.5 -34.5q-213 -23 -340 -147q3 8 9 22t25 53.5t39 75.5t50 80.5t59.5 76t66 53.5t71.5 22zM285 909q39 0 78 -21t69.5 -55t58.5 -74.5t48 -81.5t35 -75
t22 -55l8 -21q-117 148 -319 148q-49 0 -88 30t-39 76q0 53 33.5 91t93.5 38zM643 1214q38 -37 48.5 -102t-2.5 -131t-31.5 -126.5t-35.5 -98.5l-18 -39q20 191 -125 330q-35 35 -42 81.5t24 83.5q23 23 53 34t65 3.5t64 -35.5z" />
    <glyph glyph-name="bar" unicode="|" 
d="M207 403q-13 0 -19 -2v-200q4 -2 19 -2q37 0 50 25t13 77q0 54 -13 78t-50 24zM518 330v-49h-82v-78h96v-49h-155v297h155v-52h-96v-69h82zM203 150q-47 0 -74 4v292q61 9 76 9q67 0 96 -37.5t29 -116.5t-29.5 -115t-97.5 -36zM586 451h80l39 -164l38 164h82
q3 -45 13 -297h-60q0 108 -6 213l-41 -168h-55l-41 168h-2q-4 -140 -4 -213h-58q3 156 15 297zM987 150q-60 0 -84 35.5t-24 115.5q0 81 24 117.5t84 36.5t85.5 -37t25.5 -117q0 -79 -25.5 -115t-85.5 -36zM987 403q-29 0 -39 -23.5t-10 -78.5q0 -54 10 -78t39 -24
q30 0 40.5 24t10.5 78q0 55 -10 78.5t-41 23.5zM967 1016q49 0 79.5 -24.5t39 -51t8.5 -53.5q0 -43 -34.5 -72.5t-72.5 -34.5q-213 -23 -340 -147q3 8 9 22t25 53.5t39 75.5t50 80.5t59.5 76t66 53.5t71.5 22zM285 909q39 0 78 -21t69.5 -55t58.5 -74.5t48 -81.5t35 -75
t22 -55l8 -21q-117 148 -319 148q-49 0 -88 30t-39 76q0 53 33.5 91t93.5 38zM643 1214q38 -37 48.5 -102t-2.5 -131t-31.5 -126.5t-35.5 -98.5l-18 -39q20 191 -125 330q-35 35 -42 81.5t24 83.5q23 23 53 34t65 3.5t64 -35.5z" />
    <glyph glyph-name="braceright" unicode="}" 
d="M207 403q-13 0 -19 -2v-200q4 -2 19 -2q37 0 50 25t13 77q0 54 -13 78t-50 24zM518 330v-49h-82v-78h96v-49h-155v297h155v-52h-96v-69h82zM203 150q-47 0 -74 4v292q61 9 76 9q67 0 96 -37.5t29 -116.5t-29.5 -115t-97.5 -36zM586 451h80l39 -164l38 164h82
q3 -45 13 -297h-60q0 108 -6 213l-41 -168h-55l-41 168h-2q-4 -140 -4 -213h-58q3 156 15 297zM987 150q-60 0 -84 35.5t-24 115.5q0 81 24 117.5t84 36.5t85.5 -37t25.5 -117q0 -79 -25.5 -115t-85.5 -36zM987 403q-29 0 -39 -23.5t-10 -78.5q0 -54 10 -78t39 -24
q30 0 40.5 24t10.5 78q0 55 -10 78.5t-41 23.5zM967 1016q49 0 79.5 -24.5t39 -51t8.5 -53.5q0 -43 -34.5 -72.5t-72.5 -34.5q-213 -23 -340 -147q3 8 9 22t25 53.5t39 75.5t50 80.5t59.5 76t66 53.5t71.5 22zM285 909q39 0 78 -21t69.5 -55t58.5 -74.5t48 -81.5t35 -75
t22 -55l8 -21q-117 148 -319 148q-49 0 -88 30t-39 76q0 53 33.5 91t93.5 38zM643 1214q38 -37 48.5 -102t-2.5 -131t-31.5 -126.5t-35.5 -98.5l-18 -39q20 191 -125 330q-35 35 -42 81.5t24 83.5q23 23 53 34t65 3.5t64 -35.5z" />
    <glyph glyph-name="asciitilde" unicode="~" 
d="M207 403q-13 0 -19 -2v-200q4 -2 19 -2q37 0 50 25t13 77q0 54 -13 78t-50 24zM518 330v-49h-82v-78h96v-49h-155v297h155v-52h-96v-69h82zM203 150q-47 0 -74 4v292q61 9 76 9q67 0 96 -37.5t29 -116.5t-29.5 -115t-97.5 -36zM586 451h80l39 -164l38 164h82
q3 -45 13 -297h-60q0 108 -6 213l-41 -168h-55l-41 168h-2q-4 -140 -4 -213h-58q3 156 15 297zM987 150q-60 0 -84 35.5t-24 115.5q0 81 24 117.5t84 36.5t85.5 -37t25.5 -117q0 -79 -25.5 -115t-85.5 -36zM987 403q-29 0 -39 -23.5t-10 -78.5q0 -54 10 -78t39 -24
q30 0 40.5 24t10.5 78q0 55 -10 78.5t-41 23.5zM967 1016q49 0 79.5 -24.5t39 -51t8.5 -53.5q0 -43 -34.5 -72.5t-72.5 -34.5q-213 -23 -340 -147q3 8 9 22t25 53.5t39 75.5t50 80.5t59.5 76t66 53.5t71.5 22zM285 909q39 0 78 -21t69.5 -55t58.5 -74.5t48 -81.5t35 -75
t22 -55l8 -21q-117 148 -319 148q-49 0 -88 30t-39 76q0 53 33.5 91t93.5 38zM643 1214q38 -37 48.5 -102t-2.5 -131t-31.5 -126.5t-35.5 -98.5l-18 -39q20 191 -125 330q-35 35 -42 81.5t24 83.5q23 23 53 34t65 3.5t64 -35.5z" />
    </font>
</defs>
</svg>
